<?xml version="1.0" encoding="UTF-8"?>
<svg width="30px" height="31px" viewBox="0 0 30 31" version="1.1" xmlns="http://www.w3.org/2000/svg" xmlns:xlink="http://www.w3.org/1999/xlink">
    <title>3FE4B026-2345-45CC-BC9D-4CA4BBE7A9D6</title>
    <defs>
        <linearGradient x1="0%" y1="50%" x2="100%" y2="50%" id="linearGradient-1">
            <stop stop-color="#20E2D7" offset="0%"></stop>
            <stop stop-color="#F9FEA5" offset="100%"></stop>
        </linearGradient>
        <linearGradient x1="0%" y1="50%" x2="100%" y2="50%" id="linearGradient-2">
            <stop stop-color="#20E2D7" offset="0%"></stop>
            <stop stop-color="#F9FEA5" offset="100%"></stop>
        </linearGradient>
        <linearGradient x1="0%" y1="50%" x2="100%" y2="50%" id="linearGradient-3">
            <stop stop-color="#20E2D7" offset="0%"></stop>
            <stop stop-color="#F9FEA5" offset="100%"></stop>
        </linearGradient>
        <linearGradient x1="0%" y1="50%" x2="100%" y2="50%" id="linearGradient-4">
            <stop stop-color="#20E2D7" offset="0%"></stop>
            <stop stop-color="#F9FEA5" offset="100%"></stop>
        </linearGradient>
        <linearGradient x1="0%" y1="50%" x2="100%" y2="50%" id="linearGradient-5">
            <stop stop-color="#20E2D7" offset="0%"></stop>
            <stop stop-color="#F9FEA5" offset="100%"></stop>
        </linearGradient>
    </defs>
    <g id="Desktop" stroke="none" stroke-width="1" fill="none" fill-rule="evenodd">
        <g id="Resources" transform="translate(-64.000000, -65.000000)" fill-rule="nonzero">
            <g transform="translate(24.000000, 11.000000)" id="Icon---Blog">
                <g transform="translate(40.000000, 54.732422)">
                    <path d="M28.5333333,0 L1.46666667,0 C0.656666667,0 0,0.656666667 0,1.46666667 L0,28.5333333 C0,29.3433333 0.656666667,30 1.46666667,30 L28.5333333,30 C29.3433333,30 30,29.3433333 30,28.5333333 L30,1.46666667 C30,0.656666667 29.3433333,0 28.5333333,0 Z M29.0166667,28.5333333 C29.0166667,28.8 28.8,29.0166667 28.5333333,29.0166667 L1.46666667,29.0166667 C1.2,29.0166667 0.983333333,28.8 0.983333333,28.5333333 L0.983333333,1.46666667 C0.983333333,1.2 1.2,0.983333333 1.46666667,0.983333333 L28.5333333,0.983333333 C28.8,0.983333333 29.0166667,1.2 29.0166667,1.46666667 L29.0166667,28.5333333 Z" id="Shape" fill="url(#linearGradient-1)"></path>
                    <path d="M25.6266667,6.96 L4.45333333,6.96 C3.64333333,6.96 2.98666667,7.61666667 2.98666667,8.42666667 L2.98666667,17.57 C2.98666667,18.38 3.64333333,19.0366667 4.45333333,19.0366667 L25.6266667,19.0366667 C26.4366667,19.0366667 27.0933333,18.38 27.0933333,17.57 L27.0933333,8.42666667 C27.0933333,7.61666667 26.4333333,6.96 25.6266667,6.96 Z M26.11,17.57 C26.11,17.8366667 25.8933333,18.0533333 25.6266667,18.0533333 L4.45333333,18.0533333 C4.18666667,18.0533333 3.97,17.8366667 3.97,17.57 L3.97,17.4833333 L8.34666667,15.0633333 L12.4466667,17.0533333 C12.6133333,17.1366667 12.8133333,17.1133333 12.9633333,17 L20.72,11.0333333 L26.1066667,14.8533333 L26.1066667,17.57 L26.11,17.57 Z M26.11,13.65 L20.9933333,10.0266667 C20.8166667,9.90333333 20.58,9.90666667 20.41,10.0366667 L12.6066667,16.0366667 L8.55333333,14.0666667 C8.41,13.9966667 8.24,14 8.1,14.0766667 L3.97333333,16.3566667 L3.97333333,8.42333333 C3.97333333,8.15666667 4.19,7.94 4.45666667,7.94 L25.63,7.94 C25.8966667,7.94 26.1133333,8.15666667 26.1133333,8.42333333 L26.1133333,13.65 L26.11,13.65 Z" id="Shape" fill="url(#linearGradient-2)"></path>
                    <path d="M12.46,21.7933333 L3.47666667,21.7933333 C3.20333333,21.7933333 2.98333333,22.0133333 2.98333333,22.2866667 C2.98333333,22.56 3.20333333,22.78 3.47666667,22.78 L12.4566667,22.78 C12.73,22.78 12.95,22.56 12.95,22.2866667 C12.95,22.0133333 12.73,21.7933333 12.46,21.7933333 Z" id="Path" fill="url(#linearGradient-3)"></path>
                    <path d="M12.46,25.45 L3.47666667,25.45 C3.20333333,25.45 2.98333333,25.67 2.98333333,25.9433333 C2.98333333,26.2133333 3.20333333,26.4366667 3.47666667,26.4366667 L12.4566667,26.4366667 C12.73,26.4366667 12.95,26.2166667 12.95,25.9433333 C12.95,25.67 12.73,25.45 12.46,25.45 Z" id="Path" fill="url(#linearGradient-3)"></path>
                    <path d="M26.6,21.7933333 L17.62,21.7933333 C17.3466667,21.7933333 17.1266667,22.0133333 17.1266667,22.2866667 C17.1266667,22.56 17.3466667,22.78 17.62,22.78 L26.6,22.78 C26.8733333,22.78 27.0933333,22.56 27.0933333,22.2866667 C27.0933333,22.0133333 26.8733333,21.7933333 26.6,21.7933333 Z" id="Path" fill="url(#linearGradient-3)"></path>
                    <path d="M26.6,25.45 L17.62,25.45 C17.3466667,25.45 17.1266667,25.67 17.1266667,25.9433333 C17.1266667,26.2133333 17.3466667,26.4366667 17.62,26.4366667 L26.6,26.4366667 C26.8733333,26.4366667 27.0933333,26.2166667 27.0933333,25.9433333 C27.0933333,25.67 26.8733333,25.45 26.6,25.45 Z" id="Path" fill="url(#linearGradient-3)"></path>
                    <path d="M18.6766667,4.65333333 C18.95,4.65333333 19.17,4.43333333 19.17,4.16 C19.17,3.88666667 18.95,3.66666667 18.6766667,3.66666667 L3.11333333,3.66666667 C2.84,3.66666667 2.62,3.88666667 2.62,4.16 C2.62,4.43 2.84,4.65333333 3.11333333,4.65333333 L18.6766667,4.65333333 Z" id="Path" fill="url(#linearGradient-4)"></path>
                    <path d="M20.71,4.65333333 L22.7833333,4.65333333 C23.0566667,4.65333333 23.2766667,4.43333333 23.2766667,4.16 C23.2766667,3.88666667 23.0566667,3.66666667 22.7833333,3.66666667 L20.71,3.66666667 C20.4366667,3.66666667 20.2166667,3.88666667 20.2166667,4.16 C20.2166667,4.43 20.4366667,4.65333333 20.71,4.65333333 Z" id="Path" fill="url(#linearGradient-5)"></path>
                    <path d="M26.6,3.66666667 L24.5266667,3.66666667 C24.2533333,3.66666667 24.0333333,3.88666667 24.0333333,4.16 C24.0333333,4.43 24.2533333,4.65333333 24.5266667,4.65333333 L26.6,4.65333333 C26.8733333,4.65333333 27.0933333,4.43333333 27.0933333,4.16 C27.0933333,3.88666667 26.8733333,3.66666667 26.6,3.66666667 Z" id="Path" fill="url(#linearGradient-5)"></path>
                    <path d="M7.07,8.70666667 C5.99333333,8.70666667 5.11333333,9.58333333 5.11333333,10.6633333 C5.11333333,11.74 5.99,12.62 7.07,12.62 C8.15,12.62 9.02666667,11.7433333 9.02666667,10.6633333 C9.02666667,9.58333333 8.14666667,8.70666667 7.07,8.70666667 Z M7.07,11.6333333 C6.53333333,11.6333333 6.1,11.1966667 6.1,10.6633333 C6.1,10.13 6.53666667,9.69333333 7.07,9.69333333 C7.60333333,9.69333333 8.04,10.13 8.04,10.6633333 C8.04,11.1966667 7.60666667,11.6333333 7.07,11.6333333 Z" id="Shape" fill="url(#linearGradient-1)"></path>
                </g>
            </g>
        </g>
    </g>
</svg>