<svg width="30" height="30" viewBox="0 0 30 30" fill="none" xmlns="http://www.w3.org/2000/svg">
<path d="M26.41 5.26997H23.11C23.04 4.81997 22.96 4.36997 22.85 3.88997C23.2424 3.72707 23.5658 3.43274 23.7649 3.05747C23.964 2.68219 24.0263 2.24935 23.9411 1.83316C23.856 1.41697 23.6287 1.04336 23.2983 0.776394C22.9679 0.50943 22.5548 0.365744 22.13 0.369974H7.44005C7.01438 0.363335 6.59971 0.505313 6.26744 0.771465C5.93517 1.03762 5.70609 1.41129 5.61964 1.82814C5.53319 2.24499 5.59478 2.67895 5.7938 3.05528C5.99283 3.43162 6.31684 3.72679 6.71005 3.88997C6.60005 4.34997 6.50005 4.80997 6.43005 5.26997H3.15005C2.98826 5.26997 2.83311 5.33424 2.71871 5.44864C2.60431 5.56304 2.54005 5.71819 2.54005 5.87997V8.32997C2.53796 9.706 2.95898 11.0494 3.74604 12.1781C4.53309 13.3068 5.64813 14.1663 6.94005 14.64C7.41227 15.8166 8.14262 16.8722 9.07723 17.729C10.0118 18.5857 11.1269 19.2217 12.34 19.59V22.41H9.86005C9.04848 22.41 8.27016 22.7324 7.6963 23.3062C7.12244 23.8801 6.80005 24.6584 6.80005 25.47V28.53H5.60005C5.43826 28.53 5.28311 28.5942 5.16871 28.7086C5.05431 28.823 4.99005 28.9782 4.99005 29.14C4.99005 29.3018 5.05431 29.4569 5.16871 29.5713C5.28311 29.6857 5.43826 29.75 5.60005 29.75H24C24.1618 29.75 24.317 29.6857 24.4314 29.5713C24.5458 29.4569 24.61 29.3018 24.61 29.14C24.61 28.9782 24.5458 28.823 24.4314 28.7086C24.317 28.5942 24.1618 28.53 24 28.53H22.8V25.47C22.8 24.6584 22.4777 23.8801 21.9038 23.3062C21.3299 22.7324 20.5516 22.41 19.74 22.41H17.23V19.59C18.442 19.2217 19.5557 18.5856 20.4887 17.7287C21.4217 16.8719 22.1501 15.8163 22.62 14.64C23.9098 14.1654 25.0222 13.3052 25.8059 12.1762C26.5896 11.0472 27.0065 9.70428 27 8.32997V5.87997C27 5.71819 26.9358 5.56304 26.8214 5.44864C26.707 5.33424 26.5518 5.26997 26.39 5.26997H26.41ZM7.44005 1.59997H22.13C22.2918 1.59997 22.447 1.66424 22.5614 1.77864C22.6758 1.89304 22.74 2.04819 22.74 2.20997C22.74 2.37176 22.6758 2.52691 22.5614 2.64131C22.447 2.75571 22.2918 2.81997 22.13 2.81997H7.44005C7.27826 2.81997 7.12311 2.75571 7.00871 2.64131C6.89431 2.52691 6.83005 2.37176 6.83005 2.20997C6.83005 2.04819 6.89431 1.89304 7.00871 1.77864C7.12311 1.66424 7.27826 1.59997 7.44005 1.59997ZM3.76005 8.32997V6.48997H6.27005C6.05536 8.68682 6.12933 10.9023 6.49005 13.08C5.65686 12.5989 4.96556 11.9063 4.48616 11.0722C4.00675 10.238 3.75626 9.29205 3.76005 8.32997ZM19.7 23.63C20.188 23.63 20.6561 23.8238 21.0011 24.1689C21.3462 24.514 21.54 24.982 21.54 25.47V28.53H8.00005V25.47C8.00267 24.9828 8.19737 24.5163 8.54187 24.1718C8.88637 23.8273 9.35286 23.6326 9.84005 23.63H19.7ZM13.56 22.41V19.87C14.3703 19.9705 15.1898 19.9705 16 19.87V22.41H13.56ZM21.93 12.49C21.7046 14.2268 20.8546 15.8222 19.5388 16.9782C18.223 18.1342 16.5315 18.7717 14.78 18.7717C13.0286 18.7717 11.337 18.1342 10.0213 16.9782C8.70552 15.8222 7.85553 14.2268 7.63005 12.49C7.23501 9.68119 7.33315 6.82502 7.92005 4.04997H21.64C22.2269 6.82502 22.3251 9.68119 21.93 12.49ZM25.8 8.32997C25.8015 9.29294 25.5502 10.2394 25.0711 11.0747C24.592 11.9101 23.902 12.605 23.07 13.09C23.4551 10.9112 23.5224 8.68809 23.27 6.48997H25.8V8.32997Z" fill="url(#paint0_linear_124_14565)"/>
<path d="M18.7301 8.12995H16.5501L15.8701 6.05995C15.7986 5.82791 15.6536 5.6254 15.457 5.48291C15.2604 5.34043 15.0228 5.26568 14.7801 5.26995C14.5381 5.26888 14.302 5.34485 14.106 5.48688C13.91 5.62891 13.7644 5.82962 13.6901 6.05995L13.0001 8.12995H10.8401C10.597 8.1292 10.3599 8.20551 10.1628 8.34792C9.96582 8.49033 9.819 8.69152 9.74345 8.92259C9.66791 9.15366 9.66754 9.40273 9.74239 9.63403C9.81724 9.86532 9.96347 10.0669 10.1601 10.2099L11.9301 11.4899L11.2501 13.5599C11.1717 13.79 11.1703 14.0393 11.2461 14.2702C11.3219 14.501 11.4707 14.701 11.6701 14.8399C11.8664 14.9823 12.1026 15.0589 12.3451 15.0589C12.5875 15.0589 12.8238 14.9823 13.0201 14.8399L14.7801 13.5599L16.5401 14.8399C16.7362 14.9818 16.972 15.0581 17.214 15.0582C17.456 15.0582 17.6918 14.9818 17.8879 14.84C18.084 14.6982 18.2304 14.4981 18.3062 14.2683C18.382 14.0385 18.3833 13.7906 18.3101 13.5599L17.6401 11.4899L19.4001 10.2099C19.596 10.0675 19.7419 9.86673 19.817 9.6364C19.8921 9.40608 19.8925 9.15793 19.8182 8.92734C19.744 8.69675 19.5988 8.49551 19.4034 8.35232C19.208 8.20913 18.9723 8.1313 18.7301 8.12995ZM16.5601 10.7599C16.4545 10.8364 16.3762 10.9446 16.3366 11.0688C16.297 11.1929 16.2982 11.3265 16.3401 11.4499L17.0801 13.7099L15.1401 12.3099C15.035 12.235 14.9091 12.1947 14.7801 12.1947C14.651 12.1947 14.5252 12.235 14.4201 12.3099L12.4901 13.7099L13.2301 11.4399C13.2702 11.317 13.2694 11.1843 13.228 11.0618C13.1865 10.9392 13.1066 10.8334 13.0001 10.7599L11.0801 9.35995H13.4601C13.5821 9.3533 13.6993 9.30951 13.7958 9.23445C13.8923 9.15939 13.9636 9.05663 14.0001 8.93995L14.7401 6.66995L15.4801 8.93995C15.5188 9.063 15.5961 9.17031 15.7005 9.24596C15.805 9.32162 15.9311 9.36159 16.0601 9.35995H18.4401L16.5601 10.7599Z" fill="url(#paint1_linear_124_14565)"/>
<defs>
<linearGradient id="paint0_linear_124_14565" x1="2.54005" y1="15.06" x2="27.02" y2="15.06" gradientUnits="userSpaceOnUse">
<stop stop-color="#20E2D7"/>
<stop offset="1" stop-color="#F9FEA5"/>
</linearGradient>
<linearGradient id="paint1_linear_124_14565" x1="108.4" y1="104.825" x2="212.206" y2="104.825" gradientUnits="userSpaceOnUse">
<stop stop-color="#20E2D7"/>
<stop offset="1" stop-color="#F9FEA5"/>
</linearGradient>
</defs>
</svg>
