<svg width="50" height="50" viewBox="0 0 50 50" fill="none" xmlns="http://www.w3.org/2000/svg">
<g clip-path="url(#clip0_1_34)">
<path d="M46.6641 38.0153C46.5701 38.6319 46.3143 39.2126 45.9227 39.6981C45.5311 40.1835 45.0178 40.5564 44.4351 40.7788L34.8626 44.4428C34.4126 44.6112 33.9326 44.6851 33.4528 44.6597C32.9729 44.6344 32.5035 44.5104 32.0737 44.2955C31.6439 44.0806 31.263 43.7793 30.9548 43.4107C30.6466 43.042 30.4178 42.6138 30.2825 42.1527V42.1527C30.084 41.4533 30.1658 40.7042 30.5107 40.0643C30.8556 39.4243 31.4364 38.9439 32.1298 38.7252L34.0229 38.1221C39.3664 36.9847 42.5039 34.9925 44.4886 34.9696C46.2825 34.8932 47.0229 36.4886 46.6641 38.0153Z" fill="white"/>
<path d="M45.4886 35.1298C45.1704 35.6181 44.7381 36.0216 44.229 36.3054L35.2367 41.2366C34.4362 41.6748 33.4957 41.781 32.6177 41.5326C31.7396 41.2842 30.9943 40.701 30.542 39.9084C30.3459 40.2341 30.2184 40.5964 30.1672 40.9731C30.116 41.3498 30.1423 41.7331 30.2443 42.0993C30.3796 42.5604 30.6084 42.9886 30.9166 43.3573C31.2248 43.726 31.6057 44.0271 32.0355 44.242C32.4653 44.4569 32.9348 44.581 33.4147 44.6063C33.8945 44.6317 34.3744 44.5578 34.8244 44.3894L44.397 40.7252C44.9797 40.5029 45.493 40.1299 45.8846 39.6445C46.2762 39.1591 46.5319 38.5784 46.6259 37.9618C46.7949 37.4311 46.7738 36.8581 46.5662 36.3413C46.3587 35.8245 45.9776 35.3962 45.4886 35.1298Z" fill="url(#paint0_linear_1_34)"/>
<path d="M33.6107 45.2214C32.9754 45.2206 32.3487 45.0743 31.7787 44.7938C31.2747 44.5369 30.8294 44.1785 30.4707 43.7411C30.1121 43.3036 29.8479 42.7965 29.6947 42.252C29.4535 41.4109 29.5509 40.5087 29.966 39.7384C30.381 38.9682 31.0809 38.3908 31.916 38.1297L33.8092 37.5192C36.0951 37.0102 38.3363 36.3182 40.5114 35.4503C41.7559 34.8781 43.0825 34.5046 44.4428 34.3435C44.8751 34.3218 45.3065 34.4001 45.7037 34.5722C46.1009 34.7443 46.453 35.0057 46.7328 35.3359C47.0232 35.7271 47.222 36.1786 47.3145 36.6569C47.407 37.1352 47.3908 37.6281 47.2672 38.0993C47.1533 38.8113 46.8542 39.4807 46.4001 40.0407C45.9459 40.6007 45.3525 41.0317 44.6794 41.2901L35.1069 44.9543C34.6298 45.138 34.1219 45.2286 33.6107 45.2214ZM44.4886 35.4885C43.2631 35.6533 42.0692 36.0007 40.9466 36.5191C38.7342 37.4022 36.4546 38.1068 34.1298 38.626L32.2901 39.2215C31.7394 39.396 31.2784 39.7782 31.0048 40.2869C30.7311 40.7957 30.6664 41.3909 30.8245 41.9465C30.9344 42.3381 31.1249 42.7027 31.3837 43.0165C31.6426 43.3303 31.9641 43.5865 32.3276 43.769C32.6911 43.9515 33.0887 44.0561 33.495 44.0761C33.9013 44.0962 34.3073 44.0313 34.687 43.8855L44.2672 40.2213C44.75 40.0345 45.1757 39.725 45.5023 39.3234C45.829 38.9218 46.0453 38.442 46.1298 37.9312C46.1298 37.9312 46.1298 37.9314 46.1298 37.8856C46.2154 37.5802 46.2323 37.2596 46.1795 36.9469C46.1267 36.6341 46.0055 36.3368 45.8245 36.0763C45.6646 35.8792 45.46 35.7231 45.2276 35.6209C44.9953 35.5186 44.742 35.4732 44.4886 35.4885V35.4885Z" fill="#252525"/>
<path d="M25.7633 40.2672C36.7247 40.2672 45.6107 31.3812 45.6107 20.4198C45.6107 9.45846 36.7247 0.57251 25.7633 0.57251C14.802 0.57251 5.91602 9.45846 5.91602 20.4198C5.91602 31.3812 14.802 40.2672 25.7633 40.2672Z" fill="white"/>
<path d="M20.4198 34.9618C16.4607 34.9684 12.591 33.785 9.31293 31.5649C10.9512 33.9892 13.1052 36.0214 15.6208 37.5158C18.1363 39.0102 20.9512 39.9298 23.8638 40.209C26.7764 40.4882 29.7147 40.12 32.4684 39.1306C35.222 38.1413 37.7229 36.5554 39.7918 34.4864C41.8608 32.4174 43.4467 29.9167 44.436 27.1631C45.4253 24.4095 45.7936 21.4711 45.5144 18.5585C45.2352 15.6459 44.3154 12.8309 42.821 10.3153C41.3266 7.79979 39.2946 5.64583 36.8703 4.00757C38.8863 6.99314 40.0516 10.4711 40.2414 14.0686C40.4313 17.6661 39.6383 21.2474 37.9477 24.4285C36.2571 27.6097 33.7326 30.2708 30.6448 32.1264C27.5569 33.982 24.0223 34.9621 20.4198 34.9618Z" fill="url(#paint1_linear_1_34)"/>
<path d="M25.7633 40.8397C21.7247 40.8397 17.7767 39.6422 14.4187 37.3984C11.0607 35.1547 8.44341 31.9655 6.89788 28.2342C5.35235 24.503 4.94797 20.3973 5.73588 16.4363C6.52378 12.4752 8.46851 8.83666 11.3243 5.98089C14.18 3.12513 17.8186 1.1804 21.7796 0.392495C25.7407 -0.395409 29.8465 0.00896285 33.5777 1.55449C37.3089 3.10002 40.4981 5.71712 42.7418 9.07514C44.9856 12.4332 46.1832 16.3812 46.1832 20.4199C46.1771 25.8337 44.0238 31.0241 40.1957 34.8523C36.3675 38.6804 31.1772 40.8336 25.7633 40.8397V40.8397ZM25.7633 1.14504C21.9511 1.14504 18.2245 2.27548 15.0548 4.39342C11.8851 6.51136 9.41456 9.52181 7.95569 13.0438C6.49683 16.5658 6.11511 20.4412 6.85883 24.1802C7.60256 27.9191 9.43832 31.3536 12.1339 34.0492C14.8296 36.7449 18.2641 38.5806 22.003 39.3244C25.742 40.0681 29.6174 39.6864 33.1395 38.2276C36.6615 36.7687 39.6718 34.298 41.7898 31.1283C43.9077 27.9586 45.0381 24.2321 45.0381 20.4199C45.0321 15.3097 42.9994 10.4106 39.386 6.79718C35.7726 3.18376 30.8735 1.15111 25.7633 1.14504Z" fill="#252525"/>
<path d="M26.5573 3.66411C26.5573 3.87567 26.4732 4.07864 26.3236 4.22824C26.174 4.37784 25.9711 4.46176 25.7595 4.46176C25.548 4.46176 25.3451 4.37784 25.1955 4.22824C25.0459 4.07864 24.9618 3.87567 24.9618 3.66411C24.9618 3.45254 25.0459 3.24957 25.1955 3.09997C25.3451 2.95037 25.548 2.86646 25.7595 2.86646C25.9711 2.86646 26.174 2.95037 26.3236 3.09997C26.4732 3.24957 26.5573 3.45254 26.5573 3.66411Z" fill="#252525"/>
<path d="M26.5573 37.1831C26.5573 37.3947 26.4732 37.5977 26.3236 37.7473C26.174 37.8969 25.9711 37.981 25.7595 37.981C25.548 37.981 25.3451 37.8969 25.1955 37.7473C25.0459 37.5977 24.9618 37.3947 24.9618 37.1831C24.9618 36.9716 25.0459 36.7688 25.1955 36.6192C25.3451 36.4696 25.548 36.3855 25.7595 36.3855C25.9711 36.3855 26.174 36.4696 26.3236 36.6192C26.4732 36.7688 26.5573 36.9716 26.5573 37.1831V37.1831Z" fill="#252525"/>
<path d="M9.00005 19.6259C9.15103 19.6259 9.2986 19.6708 9.42413 19.7546C9.54966 19.8385 9.64749 19.9577 9.70526 20.0972C9.76304 20.2367 9.77814 20.39 9.74869 20.5381C9.71923 20.6862 9.64653 20.8224 9.53977 20.9291C9.43301 21.0359 9.29704 21.1086 9.14896 21.138C9.00088 21.1675 8.84741 21.1524 8.70792 21.0946C8.56844 21.0368 8.44917 20.9389 8.36529 20.8134C8.28141 20.6878 8.23669 20.5402 8.23669 20.3892C8.23669 20.1868 8.31708 19.9927 8.46024 19.8495C8.6034 19.7063 8.7976 19.6259 9.00005 19.6259Z" fill="#252525"/>
<path d="M42.519 19.6259C42.67 19.6259 42.8177 19.6708 42.9432 19.7546C43.0687 19.8385 43.1666 19.9577 43.2243 20.0972C43.2821 20.2367 43.2972 20.39 43.2678 20.5381C43.2383 20.6862 43.1656 20.8224 43.0588 20.9291C42.9521 21.0359 42.8161 21.1086 42.668 21.138C42.52 21.1675 42.3664 21.1524 42.2269 21.0946C42.0874 21.0368 41.9682 20.9389 41.8844 20.8134C41.8005 20.6878 41.7557 20.5402 41.7557 20.3892C41.7557 20.1868 41.8362 19.9927 41.9793 19.8495C42.1225 19.7063 42.3166 19.6259 42.519 19.6259Z" fill="#252525"/>
<path d="M10.8473 28.0916C10.9371 28.0342 11.0379 27.9962 11.1433 27.9801C11.2487 27.9641 11.3563 27.9703 11.4591 27.9984C11.5619 28.0264 11.6578 28.0757 11.7404 28.143C11.8231 28.2103 11.8906 28.2942 11.9389 28.3892C11.9953 28.4783 12.0326 28.5781 12.0485 28.6823C12.0644 28.7866 12.0585 28.8929 12.0312 28.9947C12.004 29.0965 11.9559 29.1917 11.8901 29.2741C11.8243 29.3564 11.7421 29.4243 11.6488 29.4733C11.5581 29.5259 11.4579 29.5602 11.3539 29.5741C11.2499 29.588 11.1443 29.5813 11.0429 29.5544C10.9416 29.5274 10.8465 29.4807 10.7632 29.417C10.6799 29.3533 10.6098 29.2738 10.5572 29.1831C10.5045 29.0924 10.4704 28.9922 10.4564 28.8883C10.4425 28.7843 10.4493 28.6786 10.4762 28.5772C10.5031 28.4759 10.5498 28.3808 10.6135 28.2975C10.6771 28.2142 10.7565 28.1442 10.8473 28.0916V28.0916Z" fill="#252525"/>
<path d="M39.8779 11.3511C39.9686 11.301 40.0683 11.2691 40.1713 11.2575C40.2743 11.2459 40.3786 11.2547 40.4782 11.2834C40.5778 11.3121 40.6708 11.3602 40.7518 11.4249C40.8328 11.4895 40.9003 11.5695 40.9504 11.6603C41.0006 11.751 41.0323 11.8506 41.0439 11.9536C41.0555 12.0566 41.0467 12.161 41.018 12.2605C40.9893 12.3601 40.9412 12.4531 40.8766 12.5341C40.8119 12.6152 40.732 12.6825 40.6413 12.7326C40.5522 12.789 40.4524 12.8263 40.3482 12.8422C40.244 12.8581 40.1376 12.8523 40.0358 12.825C39.9339 12.7978 39.8388 12.7498 39.7565 12.684C39.6741 12.6182 39.6063 12.536 39.5573 12.4426C39.5007 12.3514 39.464 12.2492 39.4495 12.1428C39.4351 12.0364 39.4433 11.9282 39.4736 11.8252C39.5038 11.7222 39.5555 11.6266 39.6252 11.5449C39.6949 11.4632 39.781 11.3972 39.8779 11.3511V11.3511Z" fill="#252525"/>
<path d="M16.6947 34.5343C16.7437 34.441 16.8116 34.3588 16.8939 34.293C16.9763 34.2271 17.0713 34.1791 17.1732 34.1519C17.275 34.1246 17.3813 34.1188 17.4855 34.1347C17.5897 34.1506 17.6896 34.1879 17.7787 34.2443C17.9611 34.3513 18.0944 34.5254 18.15 34.7294C18.2057 34.9334 18.1793 35.1511 18.0764 35.3359C17.9752 35.5191 17.8053 35.6545 17.6042 35.7125C17.403 35.7705 17.1871 35.7463 17.0039 35.645C16.8206 35.5438 16.6851 35.3739 16.6271 35.1728C16.5692 34.9717 16.5935 34.7557 16.6947 34.5725V34.5343Z" fill="#252525"/>
<path d="M33.4886 5.50376C33.5688 5.37949 33.6833 5.28123 33.8183 5.22085C33.9534 5.16047 34.1029 5.14056 34.249 5.16364C34.3951 5.18671 34.5314 5.25188 34.6412 5.35094C34.7511 5.44999 34.8298 5.57868 34.8678 5.72162C34.9058 5.86456 34.9014 6.01553 34.8552 6.15604C34.809 6.29655 34.7231 6.42057 34.6077 6.51312C34.4923 6.60567 34.3525 6.6627 34.2053 6.67731C34.0582 6.69192 33.9099 6.66356 33.7786 6.59549C33.6842 6.54655 33.6011 6.47828 33.5346 6.39534C33.4681 6.31239 33.4195 6.21651 33.3922 6.11374C33.3649 6.01096 33.3594 5.90362 33.376 5.79859C33.3926 5.69355 33.4309 5.59311 33.4886 5.50376V5.50376Z" fill="#252525"/>
<path d="M33.4885 35.3359C33.4205 35.2046 33.392 35.0563 33.4066 34.9091C33.4212 34.7619 33.4783 34.6223 33.5708 34.5069C33.6634 34.3915 33.7875 34.3056 33.928 34.2594C34.0685 34.2132 34.2194 34.2088 34.3623 34.2467C34.5053 34.2847 34.634 34.3635 34.7331 34.4734C34.8321 34.5832 34.8971 34.7194 34.9202 34.8655C34.9433 35.0116 34.9235 35.1612 34.8631 35.2962C34.8027 35.4312 34.7044 35.5459 34.5802 35.626C34.4908 35.6837 34.3904 35.722 34.2853 35.7386C34.1803 35.7552 34.073 35.7495 33.9702 35.7222C33.8674 35.6949 33.7715 35.6466 33.6885 35.58C33.6056 35.5135 33.5375 35.4303 33.4885 35.3359Z" fill="#252525"/>
<path d="M16.6946 6.30526C16.642 6.21453 16.6077 6.11438 16.5938 6.01042C16.5799 5.90647 16.5866 5.80074 16.6135 5.69938C16.6405 5.59801 16.6871 5.50298 16.7508 5.41964C16.8145 5.3363 16.894 5.26633 16.9847 5.2137C17.0754 5.16108 17.1756 5.12679 17.2795 5.11288C17.3835 5.09898 17.4892 5.1057 17.5906 5.13264C17.6919 5.15957 17.787 5.20613 17.8703 5.2698C17.9536 5.33348 18.0237 5.41297 18.0763 5.50369C18.1792 5.68846 18.2056 5.9063 18.1499 6.11032C18.0943 6.31434 17.961 6.48846 17.7786 6.59543C17.6895 6.6518 17.5897 6.68912 17.4854 6.70501C17.3812 6.72091 17.2749 6.71493 17.1731 6.68768C17.0713 6.66043 16.9762 6.61242 16.8938 6.5466C16.8115 6.48078 16.7436 6.39858 16.6946 6.30526V6.30526Z" fill="#252525"/>
<path d="M39.8779 29.4885C39.6947 29.3873 39.5591 29.2174 39.5012 29.0163C39.4432 28.8151 39.4675 28.5992 39.5687 28.416C39.6699 28.2328 39.8398 28.0971 40.041 28.0392C40.2421 27.9812 40.458 28.0056 40.6413 28.1068C40.732 28.1569 40.8119 28.2244 40.8765 28.3055C40.9412 28.3865 40.9893 28.4795 41.018 28.5791C41.0467 28.6786 41.0555 28.7828 41.0439 28.8858C41.0323 28.9888 41.0006 29.0886 40.9504 29.1793C40.9003 29.2701 40.8328 29.3499 40.7518 29.4145C40.6707 29.4792 40.5778 29.5273 40.4782 29.556C40.3786 29.5847 40.2743 29.5935 40.1713 29.5819C40.0683 29.5703 39.9686 29.5387 39.8779 29.4885Z" fill="#252525"/>
<path d="M10.8473 12.7328C10.7231 12.6526 10.6248 12.5381 10.5644 12.4031C10.504 12.2681 10.4841 12.1185 10.5072 11.9724C10.5303 11.8263 10.5954 11.6901 10.6944 11.5803C10.7935 11.4705 10.9222 11.3917 11.0652 11.3537C11.2081 11.3157 11.359 11.3202 11.4995 11.3663C11.64 11.4125 11.7641 11.4985 11.8567 11.6138C11.9492 11.7292 12.0063 11.8688 12.0209 12.016C12.0355 12.1632 12.007 12.3115 11.939 12.4428C11.89 12.5372 11.8218 12.6204 11.7389 12.6869C11.656 12.7535 11.5601 12.8018 11.4573 12.8291C11.3545 12.8564 11.2472 12.8621 11.1422 12.8455C11.0371 12.8289 10.9367 12.7904 10.8473 12.7328Z" fill="#252525"/>
<path d="M22.9542 23.9999C22.8099 23.9991 22.6711 23.9447 22.5649 23.8472C22.4595 23.7389 22.4006 23.5937 22.4006 23.4426C22.4006 23.2915 22.4595 23.1463 22.5649 23.038L34.8703 9.86263C34.9156 9.79282 34.9756 9.73356 35.046 9.68931C35.1165 9.64505 35.1958 9.61686 35.2783 9.60637C35.3609 9.59589 35.4448 9.60351 35.5241 9.62874C35.6034 9.65397 35.6762 9.69604 35.7375 9.7523C35.7989 9.80856 35.8471 9.87767 35.8791 9.95451C35.911 10.0313 35.9259 10.1142 35.9225 10.1973C35.9192 10.2805 35.8977 10.3619 35.8597 10.4359C35.8217 10.5099 35.768 10.5748 35.7023 10.626L23.4046 23.8014C23.349 23.8659 23.2798 23.9173 23.2019 23.9516C23.1239 23.9859 23.0393 24.0024 22.9542 23.9999Z" fill="#252525"/>
<path d="M31.9008 29.1755C31.8117 29.1767 31.7236 29.1566 31.6439 29.1168C31.5642 29.0769 31.4952 29.0186 31.4427 28.9466L22.8625 17.4962C22.7714 17.3748 22.7323 17.222 22.7538 17.0717C22.7753 16.9214 22.8556 16.7858 22.9771 16.6947C23.0985 16.6036 23.2512 16.5644 23.4015 16.5858C23.5518 16.6073 23.6875 16.6876 23.7786 16.8091L32.3588 28.2595C32.4039 28.3196 32.4367 28.3881 32.4553 28.4609C32.474 28.5338 32.4782 28.6096 32.4675 28.684C32.4569 28.7584 32.4317 28.8299 32.3934 28.8946C32.355 28.9593 32.3044 29.0159 32.2443 29.061C32.1444 29.1339 32.0244 29.1739 31.9008 29.1755V29.1755Z" fill="#252525"/>
<path d="M25.7633 22.7099C27.0281 22.7099 28.0534 21.6846 28.0534 20.4198C28.0534 19.1551 27.0281 18.1298 25.7633 18.1298C24.4986 18.1298 23.4733 19.1551 23.4733 20.4198C23.4733 21.6846 24.4986 22.7099 25.7633 22.7099Z" fill="url(#paint2_linear_1_34)"/>
<path d="M25.7634 23.2825C25.1972 23.2825 24.6438 23.1147 24.173 22.8002C23.7023 22.4856 23.3353 22.0384 23.1187 21.5153C22.902 20.9923 22.8453 20.4168 22.9558 19.8615C23.0662 19.3062 23.3389 18.7961 23.7393 18.3957C24.1396 17.9954 24.6496 17.7227 25.2049 17.6123C25.7602 17.5018 26.3358 17.5585 26.8588 17.7751C27.3819 17.9918 27.829 18.3589 28.1436 18.8296C28.4581 19.3004 28.626 19.8537 28.626 20.4199C28.626 21.1791 28.3244 21.9072 27.7875 22.444C27.2507 22.9808 26.5226 23.2825 25.7634 23.2825ZM25.7634 18.7023C25.4237 18.7023 25.0916 18.803 24.8092 18.9917C24.5267 19.1805 24.3066 19.4487 24.1766 19.7626C24.0466 20.0764 24.0125 20.4218 24.0788 20.755C24.1451 21.0881 24.3087 21.3942 24.5489 21.6344C24.7891 21.8746 25.0951 22.0382 25.4283 22.1044C25.7615 22.1707 26.1069 22.1368 26.4207 22.0068C26.7345 21.8768 27.0028 21.6565 27.1915 21.3741C27.3802 21.0916 27.4809 20.7596 27.4809 20.4199C27.4809 19.9644 27.2999 19.5276 26.9778 19.2055C26.6557 18.8834 26.2189 18.7023 25.7634 18.7023V18.7023Z" fill="#252525"/>
<path d="M48.7557 37.9388C47.2748 36.7174 43.1985 40.4733 32.5725 42.4809C33.9771 41.9466 34.4733 41.168 34.5267 40.3893C34.7633 36.8703 31.7176 37.0304 31.7176 37.0304C16.0611 37.2137 27.9695 33.4961 6.67938 33.3969V47.1373C6.67938 47.1373 30.1221 55.0992 47.9008 41.4427C47.8702 41.4274 50.6794 39.5419 48.7557 37.9388Z" fill="white"/>
<path d="M48.7557 37.9389C48.3206 37.5801 47.6489 37.6565 46.6641 37.9924C46.3641 38.4324 45.9955 38.8215 45.5725 39.1451C31.3816 50.9466 12.7939 48.229 6.67938 46.9084V47.1221C6.67938 47.1221 30.1221 55.084 47.9008 41.4275C47.8702 41.4275 50.6794 39.5419 48.7557 37.9389Z" fill="url(#paint3_linear_1_34)"/>
<path d="M22.5191 49.9616C17.0929 49.9777 11.6932 49.2063 6.48856 47.6716C6.37578 47.6323 6.27785 47.5593 6.20817 47.4623C6.1385 47.3653 6.10046 47.249 6.09924 47.1296V33.3891C6.09938 33.2374 6.15976 33.0918 6.26716 32.9845C6.3152 32.925 6.37745 32.8784 6.44812 32.849C6.5188 32.8197 6.59566 32.8086 6.67176 32.8166C18.2137 32.8701 20.1832 34.0076 21.9389 35.0076C23.3588 35.8243 24.5878 36.5342 31.7176 36.4502C32.6342 36.4377 33.5202 36.7796 34.1909 37.4044C34.5529 37.8107 34.8223 38.2907 34.9804 38.8113C35.1386 39.3319 35.1817 39.8807 35.1069 40.4196C35.0831 40.7665 34.9869 41.1046 34.8244 41.412C38.0847 40.6401 41.2721 39.588 44.3511 38.2671C46.8168 37.2595 48.1679 36.7022 49.1221 37.5037C49.4033 37.7076 49.6308 37.9765 49.785 38.2876C49.9393 38.5987 50.0157 38.9427 50.0077 39.2899C49.9313 40.7021 48.3741 41.7786 48.1985 41.9007C39.9313 48.2518 30.3893 49.9616 22.5191 49.9616ZM7.25192 46.7021C10.3664 47.6334 31.458 53.3358 47.5267 40.9694C47.8779 40.7252 48.8168 39.9389 48.855 39.2289C48.855 39.1221 48.855 38.7861 48.3893 38.3815C47.9619 38.0228 46.626 38.58 44.7787 39.3357C40.8928 41.0095 36.8355 42.2536 32.6794 43.0457C32.5384 43.0722 32.3928 43.0448 32.2711 42.969C32.1494 42.8931 32.0606 42.7744 32.0222 42.6363C31.9839 42.4981 31.9986 42.3505 32.0638 42.2227C32.1289 42.095 32.2397 41.9964 32.3741 41.9464C33.3741 41.5647 33.9008 41.0305 33.9542 40.3511C34.0133 39.9752 33.9922 39.591 33.8922 39.2239C33.7922 38.8568 33.6156 38.5152 33.374 38.2213C32.9263 37.8177 32.3432 37.597 31.7404 37.6029C24.2824 37.6945 22.9237 36.9084 21.3588 36.0076C19.7939 35.1068 17.9695 34.0609 7.25192 33.9769V46.7021Z" fill="#252525"/>
<path d="M27.2519 43.6869C25.0197 43.6641 22.7912 43.4984 20.5802 43.1908C20.5054 43.1814 20.4333 43.1573 20.3679 43.12C20.3025 43.0826 20.2451 43.0327 20.199 42.9731C20.153 42.9135 20.1191 42.8454 20.0993 42.7728C20.0796 42.7001 20.0743 42.6242 20.084 42.5495C20.1049 42.3979 20.1848 42.2607 20.3063 42.1678C20.4278 42.0749 20.5812 42.0338 20.7329 42.0534C27.2596 42.916 30.6565 42.4655 32.4046 41.9311C32.5476 41.8914 32.7006 41.9089 32.8311 41.9798C32.9616 42.0506 33.0594 42.1693 33.1039 42.3109C33.1485 42.4526 33.1363 42.606 33.0699 42.7388C33.0035 42.8716 32.8882 42.9735 32.7482 43.0229C30.9584 43.5117 29.1066 43.7354 27.2519 43.6869Z" fill="#252525"/>
<path d="M6.67938 33.397H0.57251V47.1374H6.67938V33.397Z" fill="url(#paint4_linear_1_34)"/>
<path d="M0.56488 33.397H4.38167V44.084C4.38167 44.2865 4.30125 44.4806 4.15809 44.6238C4.01493 44.7669 3.82077 44.8474 3.61832 44.8474H0.56488V33.397V33.397Z" fill="white"/>
<path d="M6.67939 47.7098H0.572519C0.421292 47.7079 0.276816 47.647 0.169873 47.5401C0.0629308 47.4331 0.00197707 47.2885 0 47.1373V33.3969C0.00197707 33.2456 0.0629308 33.1012 0.169873 32.9943C0.276816 32.8874 0.421292 32.8263 0.572519 32.8243H6.67939C6.83123 32.8243 6.97681 32.8847 7.08418 32.9921C7.19155 33.0994 7.25191 33.245 7.25191 33.3969V47.1373C7.25191 47.2892 7.19155 47.4347 7.08418 47.5421C6.97681 47.6495 6.83123 47.7098 6.67939 47.7098ZM1.14504 46.5648H6.10687V33.9694H1.14504V46.5648Z" fill="#252525"/>
<path d="M3.62597 44.8473C4.04756 44.8473 4.38933 44.5055 4.38933 44.0839C4.38933 43.6623 4.04756 43.3206 3.62597 43.3206C3.20438 43.3206 2.86261 43.6623 2.86261 44.0839C2.86261 44.5055 3.20438 44.8473 3.62597 44.8473Z" fill="#252525"/>
<path d="M43.7023 3.43521C43.6271 3.43556 43.5525 3.42099 43.483 3.39216C43.4135 3.36332 43.3505 3.32081 43.2977 3.26729L41.0076 0.977214C40.9514 0.924801 40.9063 0.861635 40.875 0.791407C40.8437 0.721178 40.8269 0.645384 40.8255 0.568512C40.8242 0.49164 40.8383 0.415228 40.8671 0.34394C40.8959 0.272651 40.9387 0.207838 40.9931 0.153473C41.0474 0.0991074 41.1123 0.0562835 41.1835 0.0274889C41.2548 -0.0013058 41.3311 -0.0154273 41.408 -0.0140709C41.4849 -0.0127146 41.5607 0.00421107 41.6309 0.0355026C41.7011 0.0667942 41.7644 0.11176 41.8168 0.168009L44.1069 2.45809C44.2141 2.56543 44.2743 2.71097 44.2743 2.86269C44.2743 3.01441 44.2141 3.15994 44.1069 3.26729C44.0543 3.32116 43.9913 3.36385 43.9217 3.39272C43.8522 3.42158 43.7776 3.436 43.7023 3.43521V3.43521Z" fill="#252525"/>
<path d="M41.4122 3.43521C41.337 3.43556 41.2624 3.42099 41.1929 3.39216C41.1235 3.36332 41.0605 3.32081 41.0076 3.26729C40.9004 3.15994 40.8401 3.01441 40.8401 2.86269C40.8401 2.71097 40.9004 2.56543 41.0076 2.45809L43.2977 0.168009C43.3501 0.11176 43.4133 0.0667942 43.4836 0.0355026C43.5538 0.00421107 43.6296 -0.0127146 43.7065 -0.0140709C43.7833 -0.0154273 43.8597 -0.0013058 43.931 0.0274889C44.0022 0.0562835 44.0671 0.0991074 44.1214 0.153473C44.1758 0.207838 44.2186 0.272651 44.2474 0.34394C44.2762 0.415228 44.2903 0.49164 44.289 0.568512C44.2876 0.645384 44.2708 0.721178 44.2395 0.791407C44.2082 0.861635 44.1631 0.924801 44.1069 0.977214L41.8168 3.26729C41.7642 3.32116 41.7012 3.36385 41.6316 3.39272C41.5621 3.42158 41.4875 3.436 41.4122 3.43521V3.43521Z" fill="#252525"/>
<path d="M49.4275 32.0611C49.3523 32.0614 49.2777 32.0468 49.2082 32.018C49.1388 31.9892 49.0758 31.9467 49.0229 31.8931L46.7328 29.6031C46.6766 29.5507 46.6315 29.4875 46.6002 29.4173C46.5689 29.347 46.5521 29.2712 46.5507 29.1944C46.5494 29.1175 46.5635 29.0411 46.5923 28.9698C46.6211 28.8985 46.6639 28.8337 46.7183 28.7793C46.7727 28.725 46.8375 28.6821 46.9088 28.6533C46.98 28.6245 47.0564 28.6104 47.1332 28.6118C47.2101 28.6131 47.2859 28.6301 47.3561 28.6614C47.4264 28.6926 47.4896 28.7376 47.542 28.7939L49.8321 31.0839C49.9393 31.1913 49.9996 31.3368 49.9996 31.4885C49.9996 31.6403 49.9393 31.7858 49.8321 31.8931C49.7795 31.947 49.7165 31.9897 49.647 32.0186C49.5774 32.0474 49.5028 32.0619 49.4275 32.0611V32.0611Z" fill="#252525"/>
<path d="M47.1374 32.0611C47.0622 32.0614 46.9876 32.0468 46.9182 32.018C46.8487 31.9892 46.7857 31.9467 46.7328 31.8931C46.6256 31.7858 46.5654 31.6403 46.5654 31.4885C46.5654 31.3368 46.6256 31.1913 46.7328 31.0839L49.0229 28.7939C49.0753 28.7376 49.1386 28.6926 49.2088 28.6614C49.279 28.6301 49.3548 28.6131 49.4317 28.6118C49.5086 28.6104 49.5849 28.6245 49.6562 28.6533C49.7275 28.6821 49.7923 28.725 49.8466 28.7793C49.901 28.8337 49.9438 28.8985 49.9726 28.9698C50.0014 29.0411 50.0155 29.1175 50.0142 29.1944C50.0128 29.2712 49.996 29.347 49.9647 29.4173C49.9334 29.4875 49.8884 29.5507 49.8321 29.6031L47.542 31.8931C47.4894 31.947 47.4264 31.9897 47.3569 32.0186C47.2873 32.0474 47.2127 32.0619 47.1374 32.0611V32.0611Z" fill="#252525"/>
<path d="M45.9924 50C45.9172 50.0004 45.8426 49.9858 45.7731 49.957C45.7037 49.9281 45.6406 49.8856 45.5878 49.8321L43.2977 47.542C43.2415 47.4896 43.1964 47.4265 43.1651 47.3562C43.1338 47.286 43.117 47.2102 43.1156 47.1333C43.1143 47.0565 43.1284 46.98 43.1572 46.9088C43.186 46.8375 43.2288 46.7727 43.2832 46.7183C43.3375 46.6639 43.4024 46.6211 43.4736 46.5923C43.5449 46.5635 43.6212 46.5494 43.6981 46.5507C43.775 46.5521 43.8508 46.569 43.921 46.6003C43.9912 46.6316 44.0545 46.6766 44.1069 46.7328L46.397 49.0229C46.5042 49.1303 46.5644 49.2758 46.5644 49.4275C46.5644 49.5792 46.5042 49.7248 46.397 49.8321C46.3441 49.8856 46.2811 49.9281 46.2117 49.957C46.1422 49.9858 46.0676 50.0004 45.9924 50V50Z" fill="#252525"/>
<path d="M43.7023 50C43.6271 50.0004 43.5525 49.9858 43.483 49.957C43.4136 49.9281 43.3506 49.8856 43.2977 49.8321C43.1905 49.7248 43.1302 49.5792 43.1302 49.4275C43.1302 49.2758 43.1905 49.1303 43.2977 49.0229L45.5878 46.7328C45.6402 46.6766 45.7034 46.6316 45.7737 46.6003C45.8439 46.569 45.9197 46.5521 45.9966 46.5507C46.0734 46.5494 46.1498 46.5635 46.2211 46.5923C46.2923 46.6211 46.3572 46.6639 46.4115 46.7183C46.4659 46.7727 46.5087 46.8375 46.5375 46.9088C46.5663 46.98 46.5804 47.0565 46.5791 47.1333C46.5777 47.2102 46.5609 47.286 46.5296 47.3562C46.4983 47.4265 46.4532 47.4896 46.397 47.542L44.1069 49.8321C44.054 49.8856 43.991 49.9281 43.9216 49.957C43.8521 49.9858 43.7775 50.0004 43.7023 50V50Z" fill="#252525"/>
<path d="M2.86257 27.481C2.78734 27.4813 2.71278 27.4668 2.64331 27.4379C2.57383 27.4091 2.51082 27.3666 2.45796 27.3131L0.167887 25.023C0.111638 24.9706 0.066579 24.9074 0.0352874 24.8372C0.00399582 24.767 -0.0128367 24.6912 -0.014193 24.6143C-0.0155493 24.5374 -0.00142787 24.461 0.0273668 24.3897C0.0561615 24.3184 0.0989854 24.2536 0.153351 24.1992C0.207716 24.1449 0.272529 24.1021 0.343818 24.0733C0.415106 24.0445 0.491424 24.0303 0.568297 24.0317C0.645169 24.0331 0.720963 24.05 0.791191 24.0813C0.86142 24.1126 0.924679 24.1575 0.977092 24.2138L3.26717 26.5039C3.37438 26.6112 3.43462 26.7567 3.43462 26.9085C3.43462 27.0602 3.37438 27.2057 3.26717 27.3131C3.21457 27.3669 3.15155 27.4096 3.08201 27.4385C3.01248 27.4674 2.93785 27.4818 2.86257 27.481V27.481Z" fill="#252525"/>
<path d="M0.572541 27.481C0.49732 27.4813 0.422756 27.4668 0.353281 27.4379C0.283806 27.4091 0.220797 27.3666 0.167939 27.3131C0.0607248 27.2057 0.000488281 27.0602 0.000488281 26.9085C0.000488281 26.7567 0.0607248 26.6112 0.167939 26.5039L2.45801 24.2138C2.51043 24.1575 2.57369 24.1126 2.64392 24.0813C2.71414 24.05 2.78994 24.0331 2.86681 24.0317C2.94368 24.0303 3.02 24.0445 3.09129 24.0733C3.16258 24.1021 3.22739 24.1449 3.28176 24.1992C3.33612 24.2536 3.37895 24.3184 3.40774 24.3897C3.43654 24.461 3.45066 24.5374 3.4493 24.6143C3.44794 24.6912 3.43111 24.767 3.39982 24.8372C3.36853 24.9074 3.32347 24.9706 3.26722 25.023L0.977144 27.3131C0.924549 27.3669 0.861524 27.4096 0.791988 27.4385C0.722453 27.4674 0.647826 27.4818 0.572541 27.481V27.481Z" fill="#252525"/>
<path d="M6.29769 9.1603C6.22246 9.16066 6.1479 9.14609 6.07843 9.11725C6.00895 9.08842 5.94594 9.04591 5.89308 8.99239L3.60301 6.70231C3.54676 6.6499 3.5017 6.58673 3.47041 6.5165C3.43912 6.44628 3.42228 6.37048 3.42093 6.29361C3.41957 6.21674 3.43369 6.14033 3.46249 6.06904C3.49128 5.99775 3.5341 5.93294 3.58847 5.87857C3.64284 5.82421 3.70765 5.78138 3.77894 5.75259C3.85023 5.72379 3.92654 5.70967 4.00342 5.71103C4.08029 5.71238 4.15608 5.72931 4.22631 5.7606C4.29654 5.79189 4.3598 5.83686 4.41221 5.89311L6.70229 8.18318C6.8095 8.29053 6.86974 8.43607 6.86974 8.58779C6.86974 8.7395 6.8095 8.88504 6.70229 8.99239C6.64969 9.04626 6.58667 9.08895 6.51713 9.11781C6.4476 9.14668 6.37297 9.16109 6.29769 9.1603V9.1603Z" fill="#252525"/>
<path d="M4.00766 9.1603C3.93244 9.16066 3.85788 9.14609 3.7884 9.11725C3.71893 9.08842 3.65592 9.04591 3.60306 8.99239C3.49584 8.88504 3.43561 8.7395 3.43561 8.58779C3.43561 8.43607 3.49584 8.29053 3.60306 8.18318L5.89313 5.89311C5.94555 5.83686 6.00881 5.79189 6.07904 5.7606C6.14926 5.72931 6.22506 5.71238 6.30193 5.71103C6.3788 5.70967 6.45512 5.72379 6.52641 5.75259C6.5977 5.78138 6.66251 5.82421 6.71688 5.87857C6.77124 5.93294 6.81407 5.99775 6.84286 6.06904C6.87166 6.14033 6.88578 6.21674 6.88442 6.29361C6.88306 6.37048 6.86623 6.44628 6.83494 6.5165C6.80365 6.58673 6.75859 6.6499 6.70234 6.70231L4.41226 8.99239C4.35967 9.04626 4.29664 9.08895 4.22711 9.11781C4.15757 9.14668 4.08295 9.16109 4.00766 9.1603V9.1603Z" fill="#252525"/>
</g>
<defs>
<linearGradient id="paint0_linear_1_34" x1="30.1374" y1="39.8932" x2="46.7481" y2="39.8932" gradientUnits="userSpaceOnUse">
<stop stop-color="#F4FA91"/>
<stop offset="1" stop-color="#20E2D7"/>
</linearGradient>
<linearGradient id="paint1_linear_1_34" x1="38309.4" y1="103914" x2="40035.1" y2="103914" gradientUnits="userSpaceOnUse">
<stop stop-color="#F4FA91"/>
<stop offset="1" stop-color="#20E2D7"/>
</linearGradient>
<linearGradient id="paint2_linear_1_34" x1="164.313" y1="140.649" x2="191.794" y2="140.649" gradientUnits="userSpaceOnUse">
<stop stop-color="#F4FA91"/>
<stop offset="1" stop-color="#20E2D7"/>
</linearGradient>
<linearGradient id="paint3_linear_1_34" x1="44974.8" y1="33942.3" x2="47368.8" y2="33942.3" gradientUnits="userSpaceOnUse">
<stop stop-color="#F4FA91"/>
<stop offset="1" stop-color="#20E2D7"/>
</linearGradient>
<linearGradient id="paint4_linear_1_34" x1="5.15266" y1="758.206" x2="54.0076" y2="758.206" gradientUnits="userSpaceOnUse">
<stop stop-color="#F4FA91"/>
<stop offset="1" stop-color="#20E2D7"/>
</linearGradient>
<clipPath id="clip0_1_34">
<rect width="50" height="50" fill="white"/>
</clipPath>
</defs>
</svg>
