<?xml version="1.0" encoding="UTF-8"?>
<svg width="30px" height="36px" viewBox="0 0 30 36" version="1.1" xmlns="http://www.w3.org/2000/svg" xmlns:xlink="http://www.w3.org/1999/xlink">
    <title>CC9C7316-1612-4ECF-8DE4-C3F7A491996B</title>
    <defs>
        <linearGradient x1="0%" y1="50%" x2="100%" y2="50%" id="linearGradient-1">
            <stop stop-color="#20E2D7" offset="0%"></stop>
            <stop stop-color="#F9FEA5" offset="100%"></stop>
        </linearGradient>
        <linearGradient x1="0%" y1="50%" x2="100%" y2="50%" id="linearGradient-2">
            <stop stop-color="#20E2D7" offset="0%"></stop>
            <stop stop-color="#F9FEA5" offset="100%"></stop>
        </linearGradient>
    </defs>
    <g id="Desktop" stroke="none" stroke-width="1" fill="none" fill-rule="evenodd">
        <g id="Resources" transform="translate(-387.000000, -63.000000)" fill-rule="nonzero">
            <g transform="translate(24.000000, 11.000000)" id="Icon-DataPlayground">
                <g transform="translate(363.000000, 52.732422)">
                    <path d="M15,34.0540541 C22.4554054,34.0540541 30,32.3837838 30,29.1891892 L30,4.86486486 C30,1.67027027 22.4554054,0 15,0 C7.54459459,0 0,1.67027027 0,4.86486486 L0,29.1891892 C0,32.3837838 7.54459459,34.0540541 15,34.0540541 Z M15,1.62162162 C23.7851351,1.62162162 28.3783784,3.73378378 28.3783784,4.86486486 C28.3783784,5.99594595 23.7851351,8.10810811 15,8.10810811 C6.21486486,8.10810811 1.62162162,5.99594595 1.62162162,4.86486486 C1.62162162,3.73378378 6.21486486,1.62162162 15,1.62162162 Z M1.62162162,7.19594595 C4.23648649,8.86621622 9.64459459,9.72972973 15,9.72972973 C20.3554054,9.72972973 25.7635135,8.86621622 28.3783784,7.19594595 L28.3783784,12.972973 C28.3783784,14.1040541 23.7851351,16.2162162 15,16.2162162 C6.21486486,16.2162162 1.62162162,14.1040541 1.62162162,12.972973 L1.62162162,7.19594595 Z M1.62162162,15.3040541 C4.23648649,16.9743243 9.64459459,17.8378378 15,17.8378378 C20.3554054,17.8378378 25.7635135,16.9743243 28.3783784,15.3040541 L28.3783784,21.0810811 C28.3783784,22.2121622 23.7851351,24.3243243 15,24.3243243 C6.21486486,24.3243243 1.62162162,22.2121622 1.62162162,21.0810811 L1.62162162,15.3040541 Z M1.62162162,23.4121622 C4.23648649,25.0824324 9.64459459,25.9459459 15,25.9459459 C20.3554054,25.9459459 25.7635135,25.0824324 28.3783784,23.4121622 L28.3783784,29.1891892 C28.3783784,30.3202703 23.7851351,32.4324324 15,32.4324324 C6.21486486,32.4324324 1.62162162,30.3202703 1.62162162,29.1891892 L1.62162162,23.4121622 Z" id="Shape" fill="url(#linearGradient-1)"></path>
                    <circle id="Oval" fill="url(#linearGradient-2)" cx="23.9189189" cy="27.972973" r="1.21621622"></circle>
                    <circle id="Oval" fill="url(#linearGradient-2)" cx="23.9189189" cy="19.8648649" r="1.21621622"></circle>
                    <circle id="Oval" fill="url(#linearGradient-2)" cx="23.9189189" cy="11.7567568" r="1.21621622"></circle>
                </g>
            </g>
        </g>
    </g>
</svg>