<?xml version="1.0" encoding="UTF-8"?>
<!DOCTYPE svg PUBLIC "-//W3C//DTD SVG 1.1//EN" "http://www.w3.org/Graphics/SVG/1.1/DTD/svg11.dtd">
<!-- Creator: CorelDRAW 2021 (64-Bit) -->
<svg xmlns="http://www.w3.org/2000/svg" xml:space="preserve" width="5.66687in" height="1.02073in" version="1.1" style="shape-rendering:geometricPrecision; text-rendering:geometricPrecision; image-rendering:optimizeQuality; fill-rule:evenodd; clip-rule:evenodd"
viewBox="0 0 765.2 137.83"
 xmlns:xlink="http://www.w3.org/1999/xlink"
 xmlns:xodm="http://www.corel.com/coreldraw/odm/2003">
 <defs>
  <style type="text/css">
   <![CDATA[
    .str1 {stroke:#FEFEFE;stroke-width:2.81;stroke-miterlimit:2.61313}
    .str0 {stroke:#FEFEFE;stroke-width:2.81;stroke-linecap:round;stroke-linejoin:round;stroke-miterlimit:2.61313}
    .str2 {stroke:#FACA2B;stroke-width:0.94;stroke-linecap:round;stroke-linejoin:round;stroke-miterlimit:2.61313}
    .fil4 {fill:none}
    .fil0 {fill:#3E4095}
    .fil2 {fill:#FEFEFE;fill-rule:nonzero}
    .fil1 {fill:#373435;fill-rule:nonzero}
    .fil3 {fill:#FACA2B;fill-rule:nonzero}
   ]]>
  </style>
    <clipPath id="id0">
     <path d="M21.3 67.91l51.65 0 -3.29 65.36 -48.36 4.56 0 -69.92z"/>
    </clipPath>
    <clipPath id="id1">
     <rect y="23.59" width="76.54" height="111.89"/>
    </clipPath>
 </defs>
 <g id="Layer_x0020_1">
  <metadata id="CorelCorpID_0Corel-Layer"/>
  <g id="_2617432819040">
   <g style="clip-path:url(#id0)">
    <image x="21.3" y="67.91" width="51.65" height="69.92" xlink:href="Brain Logo SVG v2_Images\Brain Logo SVG v2_ImgID1.png"/>
   </g>
   <g style="clip-path:url(#id1)">
    <image x="-0" y="23.59" width="76.54" height="111.89" xlink:href="Brain Logo SVG v2_Images\Brain Logo SVG v2_ImgID2.png"/>
   </g>
   <path class="fil0 str0" d="M5.45 18.33c7.94,-21.63 58.61,-21.49 65.46,0l-11.84 0c-8.79,-9.39 -35.28,-8.77 -41.38,0l-12.24 0z"/>
   <path class="fil1 str1" d="M80.03 25.79c-0.15,0 -0.26,-0.05 -0.35,-0.15 -0.09,-0.1 -0.15,-0.26 -0.19,-0.47 -0.04,-0.21 -0.06,-0.52 -0.06,-0.94 0,-0.44 0.02,-0.77 0.06,-0.97 0.04,-0.2 0.1,-0.35 0.19,-0.43 0.09,-0.09 0.2,-0.13 0.35,-0.13l1.15 0c-0.63,-0.54 -1.12,-1.16 -1.48,-1.85 -0.35,-0.69 -0.53,-1.46 -0.53,-2.31 0,-0.7 0.1,-1.34 0.3,-1.92 0.2,-0.58 0.5,-1.09 0.89,-1.52 0.4,-0.43 0.88,-0.76 1.46,-1 0.58,-0.24 1.26,-0.35 2.03,-0.35 0.84,0 1.57,0.15 2.18,0.45 0.62,0.3 1.13,0.75 1.54,1.34 0.4,0.59 0.7,1.33 0.89,2.22 0.19,0.88 0.29,1.91 0.29,3.08l0 1.28 0.87 0c0.45,0 0.85,-0.04 1.19,-0.13 0.33,-0.08 0.62,-0.22 0.85,-0.41 0.23,-0.19 0.39,-0.44 0.5,-0.77 0.1,-0.32 0.16,-0.72 0.16,-1.18 0,-0.62 -0.08,-1.17 -0.22,-1.66 -0.15,-0.49 -0.32,-0.92 -0.5,-1.29 -0.18,-0.37 -0.35,-0.69 -0.5,-0.94 -0.15,-0.25 -0.23,-0.45 -0.23,-0.61 0,-0.11 0.04,-0.21 0.11,-0.29 0.08,-0.09 0.19,-0.16 0.33,-0.21 0.14,-0.06 0.31,-0.1 0.52,-0.13 0.2,-0.03 0.43,-0.05 0.67,-0.05 0.34,0 0.6,0.02 0.79,0.08 0.19,0.05 0.36,0.14 0.52,0.28 0.15,0.14 0.32,0.38 0.51,0.73 0.19,0.34 0.36,0.75 0.52,1.21 0.17,0.46 0.3,0.97 0.4,1.51 0.1,0.55 0.15,1.11 0.15,1.69 0,1.03 -0.11,1.91 -0.33,2.65 -0.22,0.73 -0.56,1.34 -1.02,1.8 -0.46,0.47 -1.05,0.82 -1.77,1.04 -0.72,0.22 -1.57,0.32 -2.56,0.32l-9.68 0zm6.18 -3.66l0 -1.42c0,-0.6 -0.05,-1.11 -0.14,-1.53 -0.1,-0.42 -0.24,-0.77 -0.44,-1.03 -0.19,-0.27 -0.42,-0.46 -0.7,-0.58 -0.28,-0.13 -0.59,-0.19 -0.94,-0.19 -0.6,0 -1.08,0.18 -1.42,0.52 -0.35,0.35 -0.52,0.83 -0.52,1.45 0,0.52 0.14,1 0.43,1.44 0.29,0.44 0.72,0.88 1.28,1.34l2.45 0zm-6.13 19.94c-0.1,0 -0.2,-0.03 -0.28,-0.09 -0.08,-0.06 -0.15,-0.16 -0.2,-0.29 -0.05,-0.14 -0.09,-0.33 -0.12,-0.57 -0.03,-0.24 -0.04,-0.54 -0.04,-0.89 0,-0.37 0.01,-0.67 0.04,-0.91 0.03,-0.24 0.07,-0.43 0.12,-0.57 0.06,-0.14 0.12,-0.24 0.2,-0.29 0.08,-0.06 0.18,-0.09 0.28,-0.09l8.21 0c0.7,0 1.25,-0.05 1.65,-0.14 0.4,-0.09 0.74,-0.23 1.02,-0.4 0.29,-0.18 0.51,-0.41 0.67,-0.69 0.15,-0.28 0.23,-0.6 0.23,-0.98 0,-0.47 -0.19,-0.95 -0.57,-1.43 -0.37,-0.48 -0.93,-0.98 -1.64,-1.5l-9.57 0c-0.1,0 -0.2,-0.03 -0.28,-0.09 -0.08,-0.06 -0.15,-0.16 -0.2,-0.3 -0.05,-0.14 -0.09,-0.33 -0.12,-0.56 -0.03,-0.24 -0.04,-0.54 -0.04,-0.9 0,-0.36 0.01,-0.66 0.04,-0.9 0.03,-0.23 0.07,-0.42 0.12,-0.56 0.06,-0.15 0.12,-0.25 0.2,-0.3 0.08,-0.06 0.18,-0.09 0.28,-0.09l14.4 0c0.1,0 0.2,0.03 0.28,0.08 0.08,0.05 0.15,0.14 0.2,0.26 0.05,0.13 0.09,0.29 0.12,0.49 0.03,0.2 0.04,0.46 0.04,0.76 0,0.32 -0.01,0.57 -0.04,0.78 -0.03,0.21 -0.07,0.37 -0.12,0.48 -0.06,0.11 -0.12,0.19 -0.2,0.24 -0.08,0.05 -0.18,0.08 -0.28,0.08l-1.66 0c0.86,0.73 1.5,1.47 1.93,2.22 0.43,0.75 0.64,1.54 0.64,2.35 0,0.9 -0.16,1.65 -0.48,2.27 -0.32,0.62 -0.76,1.11 -1.32,1.49 -0.55,0.38 -1.2,0.65 -1.94,0.82 -0.74,0.17 -1.63,0.25 -2.67,0.25l-8.89 0zm-0.05 14.86c-0.15,0 -0.26,-0.05 -0.35,-0.15 -0.09,-0.1 -0.15,-0.26 -0.19,-0.47 -0.04,-0.21 -0.06,-0.52 -0.06,-0.94 0,-0.44 0.02,-0.77 0.06,-0.97 0.04,-0.2 0.1,-0.35 0.19,-0.43 0.09,-0.09 0.2,-0.13 0.35,-0.13l1.15 0c-0.63,-0.54 -1.12,-1.16 -1.48,-1.85 -0.35,-0.69 -0.53,-1.46 -0.53,-2.31 0,-0.69 0.1,-1.34 0.3,-1.92 0.2,-0.58 0.5,-1.09 0.89,-1.52 0.4,-0.43 0.88,-0.76 1.46,-1 0.58,-0.24 1.26,-0.35 2.03,-0.35 0.84,0 1.57,0.15 2.18,0.45 0.62,0.3 1.13,0.75 1.54,1.34 0.4,0.59 0.7,1.33 0.89,2.22 0.19,0.88 0.29,1.91 0.29,3.08l0 1.28 0.87 0c0.45,0 0.85,-0.04 1.19,-0.13 0.33,-0.08 0.62,-0.22 0.85,-0.41 0.23,-0.19 0.39,-0.44 0.5,-0.77 0.1,-0.32 0.16,-0.72 0.16,-1.18 0,-0.62 -0.08,-1.17 -0.22,-1.66 -0.15,-0.49 -0.32,-0.92 -0.5,-1.29 -0.18,-0.37 -0.35,-0.69 -0.5,-0.94 -0.15,-0.25 -0.23,-0.45 -0.23,-0.61 0,-0.11 0.04,-0.21 0.11,-0.29 0.08,-0.09 0.19,-0.16 0.33,-0.21 0.14,-0.06 0.31,-0.1 0.52,-0.13 0.2,-0.03 0.43,-0.05 0.67,-0.05 0.34,0 0.6,0.03 0.79,0.08 0.19,0.05 0.36,0.14 0.52,0.28 0.15,0.14 0.32,0.38 0.51,0.73 0.19,0.34 0.36,0.75 0.52,1.21 0.17,0.46 0.3,0.97 0.4,1.51 0.1,0.55 0.15,1.11 0.15,1.69 0,1.03 -0.11,1.91 -0.33,2.65 -0.22,0.73 -0.56,1.33 -1.02,1.8 -0.46,0.47 -1.05,0.82 -1.77,1.04 -0.72,0.22 -1.57,0.32 -2.56,0.32l-9.68 0zm6.18 -3.66l0 -1.42c0,-0.6 -0.05,-1.11 -0.14,-1.53 -0.1,-0.42 -0.24,-0.77 -0.44,-1.03 -0.19,-0.27 -0.42,-0.46 -0.7,-0.58 -0.28,-0.13 -0.59,-0.19 -0.94,-0.19 -0.6,0 -1.08,0.18 -1.42,0.52 -0.35,0.35 -0.52,0.83 -0.52,1.45 0,0.52 0.14,1 0.43,1.44 0.29,0.44 0.72,0.88 1.28,1.34l2.45 0zm-6.13 11.08c-0.1,0 -0.2,-0.03 -0.28,-0.09 -0.08,-0.06 -0.15,-0.16 -0.2,-0.3 -0.05,-0.14 -0.09,-0.33 -0.12,-0.56 -0.03,-0.24 -0.04,-0.54 -0.04,-0.9 0,-0.36 0.01,-0.66 0.04,-0.9 0.03,-0.23 0.07,-0.42 0.12,-0.56 0.06,-0.15 0.12,-0.25 0.2,-0.3 0.08,-0.06 0.18,-0.09 0.28,-0.09l21.22 0c0.11,0 0.2,0.03 0.29,0.09 0.08,0.06 0.16,0.16 0.21,0.3 0.06,0.14 0.1,0.33 0.14,0.56 0.03,0.24 0.05,0.54 0.05,0.9 0,0.36 -0.02,0.67 -0.05,0.9 -0.03,0.23 -0.08,0.42 -0.14,0.56 -0.06,0.15 -0.13,0.25 -0.21,0.3 -0.09,0.06 -0.18,0.09 -0.29,0.09l-21.22 0zm-0.54 11.32l-5.09 -1.6c-0.27,-0.09 -0.46,-0.33 -0.58,-0.72 -0.12,-0.39 -0.18,-0.97 -0.18,-1.72 0,-0.39 0.02,-0.71 0.06,-0.94 0.04,-0.24 0.1,-0.41 0.19,-0.53 0.09,-0.12 0.19,-0.18 0.32,-0.19 0.13,-0.01 0.29,0.02 0.47,0.09l4.82 1.75c0.07,-0.13 0.16,-0.24 0.3,-0.34 0.14,-0.11 0.28,-0.18 0.43,-0.23l13.23 -4.52c0.37,-0.13 0.67,-0.19 0.86,-0.19 0.2,0 0.35,0.06 0.47,0.18 0.11,0.12 0.19,0.32 0.23,0.59 0.04,0.28 0.07,0.65 0.07,1.11 0,0.42 -0.01,0.75 -0.02,1 -0.02,0.25 -0.06,0.44 -0.12,0.57 -0.07,0.14 -0.16,0.24 -0.3,0.31 -0.13,0.07 -0.32,0.14 -0.57,0.21l-9.63 3.1 0 0.05 9.82 2.81c0.28,0.06 0.47,0.14 0.56,0.23 0.09,0.09 0.15,0.25 0.2,0.46 0.04,0.22 0.07,0.6 0.07,1.14 0,0.43 -0.02,0.78 -0.07,1.06 -0.04,0.28 -0.12,0.49 -0.24,0.62 -0.12,0.13 -0.28,0.2 -0.47,0.2 -0.2,0 -0.43,-0.04 -0.7,-0.12l-14.1 -4.37zm15.49 19.72c0,0.41 -0.1,0.7 -0.29,0.86 -0.19,0.16 -0.47,0.24 -0.84,0.24l-13.82 0c-0.1,0 -0.2,-0.03 -0.28,-0.09 -0.08,-0.06 -0.15,-0.16 -0.2,-0.29 -0.05,-0.14 -0.09,-0.33 -0.12,-0.57 -0.03,-0.24 -0.04,-0.54 -0.04,-0.89 0,-0.37 0.01,-0.67 0.04,-0.91 0.03,-0.24 0.07,-0.43 0.12,-0.57 0.06,-0.14 0.12,-0.24 0.2,-0.29 0.08,-0.06 0.18,-0.09 0.28,-0.09l11.64 0 0 -5.9 -6.76 0c-0.79,0 -1.38,0.11 -1.77,0.34 -0.39,0.23 -0.59,0.63 -0.59,1.21 0,0.2 0.02,0.37 0.05,0.53 0.04,0.16 0.08,0.3 0.13,0.42 0.04,0.13 0.09,0.23 0.13,0.31 0.04,0.08 0.06,0.16 0.06,0.23 0,0.06 -0.02,0.12 -0.06,0.17 -0.04,0.05 -0.11,0.1 -0.23,0.13 -0.11,0.03 -0.26,0.06 -0.46,0.08 -0.2,0.02 -0.44,0.04 -0.74,0.04 -0.47,0 -0.83,-0.03 -1.07,-0.08 -0.24,-0.05 -0.42,-0.12 -0.53,-0.21 -0.12,-0.09 -0.21,-0.22 -0.29,-0.4 -0.08,-0.18 -0.15,-0.38 -0.21,-0.61 -0.06,-0.23 -0.1,-0.48 -0.14,-0.75 -0.03,-0.27 -0.05,-0.54 -0.05,-0.82 0,-0.74 0.11,-1.38 0.31,-1.92 0.2,-0.54 0.52,-0.99 0.94,-1.35 0.42,-0.35 0.96,-0.61 1.61,-0.78 0.64,-0.17 1.41,-0.25 2.29,-0.25l7.37 0 0 -1.6c0,-0.19 0.13,-0.33 0.38,-0.43 0.25,-0.1 0.68,-0.15 1.27,-0.15 0.31,0 0.58,0.01 0.79,0.04 0.21,0.03 0.39,0.07 0.51,0.12 0.12,0.05 0.21,0.11 0.26,0.19 0.06,0.07 0.08,0.16 0.08,0.26l0 1.58 3.22 0c0.1,0 0.2,0.03 0.29,0.08 0.08,0.06 0.15,0.16 0.21,0.3 0.06,0.14 0.1,0.34 0.13,0.58 0.03,0.24 0.04,0.54 0.04,0.9 0,0.36 -0.01,0.67 -0.04,0.91 -0.03,0.24 -0.07,0.43 -0.13,0.57 -0.06,0.14 -0.13,0.24 -0.21,0.29 -0.09,0.06 -0.19,0.09 -0.29,0.09l-3.22 0 0 8.51zm4.31 1.38c-0.82,0 -1.38,-0.15 -1.69,-0.46 -0.31,-0.31 -0.47,-0.87 -0.47,-1.7 0,-0.84 0.15,-1.41 0.45,-1.69 0.3,-0.29 0.85,-0.44 1.63,-0.44 0.82,0 1.39,0.15 1.71,0.45 0.31,0.3 0.47,0.87 0.47,1.71 0,0.83 -0.15,1.39 -0.46,1.69 -0.3,0.3 -0.85,0.44 -1.64,0.44zm-16.96 13.41c-0.28,0 -0.51,-0 -0.7,-0.02 -0.19,-0.02 -0.35,-0.04 -0.48,-0.06 -0.13,-0.03 -0.23,-0.06 -0.31,-0.09 -0.08,-0.04 -0.18,-0.11 -0.31,-0.23 -0.12,-0.12 -0.28,-0.32 -0.45,-0.6 -0.18,-0.29 -0.34,-0.61 -0.48,-0.98 -0.14,-0.36 -0.25,-0.76 -0.33,-1.18 -0.09,-0.43 -0.13,-0.87 -0.13,-1.32 0,-1.01 0.17,-1.91 0.52,-2.69 0.34,-0.79 0.85,-1.44 1.53,-1.97 0.67,-0.53 1.5,-0.93 2.47,-1.2 0.97,-0.27 2.08,-0.41 3.32,-0.41 1.44,0 2.69,0.17 3.74,0.49 1.05,0.33 1.92,0.79 2.61,1.38 0.69,0.59 1.2,1.29 1.54,2.1 0.34,0.81 0.5,1.69 0.5,2.66 0,0.39 -0.04,0.78 -0.12,1.16 -0.07,0.38 -0.18,0.73 -0.3,1.06 -0.13,0.33 -0.27,0.63 -0.43,0.88 -0.16,0.26 -0.3,0.45 -0.42,0.55 -0.12,0.11 -0.22,0.19 -0.3,0.23 -0.08,0.04 -0.19,0.07 -0.31,0.1 -0.13,0.03 -0.29,0.05 -0.48,0.06 -0.19,0.02 -0.42,0.02 -0.69,0.02 -0.63,0 -1.07,-0.05 -1.32,-0.15 -0.25,-0.1 -0.38,-0.23 -0.38,-0.38 0,-0.17 0.08,-0.35 0.23,-0.53 0.15,-0.19 0.32,-0.41 0.5,-0.66 0.18,-0.25 0.35,-0.56 0.5,-0.91 0.15,-0.35 0.23,-0.78 0.23,-1.27 0,-0.97 -0.41,-1.7 -1.22,-2.22 -0.81,-0.51 -2,-0.77 -3.57,-0.77 -0.77,0 -1.45,0.07 -2.05,0.19 -0.59,0.13 -1.08,0.32 -1.48,0.57 -0.4,0.25 -0.7,0.56 -0.9,0.94 -0.2,0.38 -0.3,0.82 -0.3,1.33 0,0.51 0.08,0.95 0.25,1.32 0.17,0.37 0.35,0.69 0.56,0.97 0.2,0.27 0.39,0.5 0.56,0.7 0.17,0.19 0.25,0.34 0.25,0.47 0,0.09 -0.03,0.16 -0.08,0.22 -0.06,0.06 -0.15,0.11 -0.3,0.14 -0.15,0.04 -0.34,0.06 -0.56,0.08 -0.23,0.02 -0.52,0.03 -0.87,0.03zm1.78 11.99c-0.81,0 -1.54,-0.14 -2.16,-0.42 -0.62,-0.28 -1.14,-0.68 -1.56,-1.19 -0.42,-0.51 -0.73,-1.12 -0.94,-1.82 -0.21,-0.7 -0.31,-1.46 -0.31,-2.27 0,-0.49 0.04,-0.97 0.12,-1.42 0.08,-0.45 0.19,-0.85 0.31,-1.2 0.12,-0.35 0.25,-0.65 0.38,-0.89 0.13,-0.24 0.25,-0.41 0.37,-0.51 0.12,-0.11 0.29,-0.2 0.53,-0.25 0.24,-0.06 0.59,-0.09 1.07,-0.09 0.31,0 0.56,0.01 0.74,0.03 0.19,0.02 0.34,0.05 0.45,0.09 0.11,0.04 0.19,0.09 0.23,0.15 0.04,0.06 0.06,0.13 0.06,0.22 0,0.11 -0.07,0.27 -0.2,0.48 -0.14,0.21 -0.29,0.47 -0.45,0.79 -0.17,0.31 -0.32,0.68 -0.46,1.1 -0.14,0.42 -0.21,0.9 -0.21,1.43 0,0.33 0.04,0.63 0.11,0.89 0.07,0.26 0.18,0.49 0.33,0.68 0.14,0.19 0.31,0.34 0.53,0.44 0.21,0.1 0.46,0.15 0.74,0.15 0.32,0 0.6,-0.09 0.83,-0.27 0.23,-0.19 0.43,-0.43 0.61,-0.73 0.17,-0.3 0.33,-0.64 0.48,-1.02 0.15,-0.38 0.31,-0.77 0.5,-1.17 0.18,-0.4 0.39,-0.79 0.63,-1.17 0.24,-0.38 0.52,-0.72 0.87,-1.02 0.34,-0.3 0.76,-0.54 1.24,-0.73 0.48,-0.18 1.07,-0.27 1.74,-0.27 0.69,0 1.32,0.13 1.89,0.37 0.57,0.25 1.07,0.6 1.48,1.06 0.41,0.47 0.73,1.03 0.95,1.7 0.23,0.67 0.33,1.42 0.33,2.25 0,0.42 -0.03,0.82 -0.09,1.21 -0.07,0.39 -0.15,0.75 -0.24,1.06 -0.1,0.32 -0.2,0.58 -0.31,0.8 -0.11,0.22 -0.21,0.37 -0.29,0.47 -0.08,0.1 -0.16,0.16 -0.24,0.2 -0.08,0.04 -0.18,0.07 -0.29,0.09 -0.11,0.02 -0.25,0.04 -0.42,0.06 -0.17,0.01 -0.37,0.02 -0.62,0.02 -0.29,0 -0.53,-0.01 -0.71,-0.02 -0.18,-0.02 -0.33,-0.04 -0.43,-0.08 -0.11,-0.04 -0.18,-0.08 -0.22,-0.14 -0.04,-0.06 -0.06,-0.13 -0.06,-0.21 0,-0.09 0.06,-0.23 0.17,-0.42 0.11,-0.19 0.23,-0.42 0.36,-0.71 0.13,-0.28 0.25,-0.61 0.36,-0.98 0.12,-0.37 0.17,-0.8 0.17,-1.27 0,-0.34 -0.04,-0.63 -0.11,-0.88 -0.08,-0.25 -0.19,-0.45 -0.32,-0.61 -0.14,-0.16 -0.3,-0.28 -0.49,-0.35 -0.19,-0.08 -0.39,-0.12 -0.6,-0.12 -0.34,0 -0.62,0.1 -0.84,0.28 -0.23,0.19 -0.42,0.43 -0.59,0.74 -0.17,0.3 -0.34,0.65 -0.48,1.04 -0.15,0.39 -0.31,0.79 -0.49,1.18 -0.18,0.4 -0.39,0.8 -0.62,1.18 -0.24,0.39 -0.53,0.74 -0.87,1.04 -0.35,0.31 -0.75,0.55 -1.23,0.74 -0.48,0.19 -1.05,0.28 -1.7,0.28z"/>
  </g>
  <path class="fil2" d="M141.62 70.33l0 -66.67 23.35 0c8.1,0 14.24,1.55 18.41,4.66 4.19,3.09 6.28,7.64 6.28,13.63 0,3.27 -0.84,6.16 -2.53,8.64 -1.67,2.49 -4,4.31 -7,5.47 3.42,0.86 6.11,2.58 8.08,5.17 1.97,2.59 2.95,5.77 2.95,9.52 0,6.41 -2.05,11.25 -6.13,14.55 -4.09,3.3 -9.92,4.97 -17.49,5.03l-25.93 0zm13.74 -28.98l0 17.91 11.77 0c3.24,0 5.77,-0.77 7.58,-2.3 1.81,-1.53 2.72,-3.66 2.72,-6.36 0,-6.08 -3.16,-9.16 -9.47,-9.25l-12.6 0zm0 -9.75l10.17 0c6.92,-0.12 10.39,-2.88 10.39,-8.28 0,-3.02 -0.88,-5.19 -2.64,-6.52 -1.75,-1.33 -4.52,-1.98 -8.31,-1.98l-9.61 0 0 16.78zm73.1 1.58c-1.8,-0.23 -3.38,-0.36 -4.75,-0.36 -5.02,0 -8.3,1.69 -9.85,5.08l0 32.43 -13.24 0 0 -49.51 12.5 0 0.36 5.88c2.66,-4.55 6.35,-6.81 11.03,-6.81 1.47,0 2.84,0.2 4.13,0.59l-0.19 12.71zm33.7 37.15c-0.61,-1.19 -1.05,-2.66 -1.33,-4.42 -3.2,3.58 -7.38,5.36 -12.5,5.36 -4.84,0 -8.88,-1.41 -12.07,-4.22 -3.19,-2.81 -4.78,-6.36 -4.78,-10.64 0,-5.25 1.95,-9.28 5.85,-12.1 3.89,-2.81 9.52,-4.24 16.86,-4.27l6.1 0 0 -2.81c0,-2.28 -0.59,-4.1 -1.77,-5.45 -1.17,-1.36 -3.03,-2.05 -5.56,-2.05 -2.22,0 -3.97,0.53 -5.24,1.58 -1.27,1.05 -1.91,2.5 -1.91,4.33l-13.22 0c0,-2.86 0.88,-5.52 2.64,-7.94 1.78,-2.44 4.28,-4.34 7.52,-5.74 3.24,-1.39 6.86,-2.08 10.89,-2.08 6.11,0 10.96,1.53 14.53,4.59 3.59,3.08 5.39,7.38 5.39,12.94l0 21.47c0.03,4.69 0.69,8.25 1.97,10.66l0 0.78 -13.38 0zm-10.94 -9.19c1.95,0 3.75,-0.44 5.41,-1.3 1.64,-0.88 2.86,-2.05 3.66,-3.5l0 -8.52 -4.94 0c-6.63,0 -10.16,2.28 -10.58,6.86l-0.05 0.78c0,1.64 0.58,3 1.74,4.08 1.16,1.06 2.75,1.59 4.77,1.59zm46.46 9.19l-13.27 0 0 -49.51 13.27 0 0 49.51zm-14.05 -62.3c0,-1.97 0.66,-3.61 1.99,-4.89 1.33,-1.28 3.14,-1.92 5.44,-1.92 2.25,0 4.05,0.64 5.39,1.92 1.34,1.28 2.02,2.92 2.02,4.89 0,2.02 -0.67,3.67 -2.03,4.95 -1.36,1.28 -3.16,1.92 -5.38,1.92 -2.23,0 -4.03,-0.64 -5.39,-1.92 -1.36,-1.28 -2.03,-2.94 -2.03,-4.95zm37.13 12.78l0.42 5.72c3.53,-4.44 8.28,-6.66 14.24,-6.66 5.25,0 9.16,1.55 11.72,4.63 2.56,3.08 3.88,7.69 3.94,13.82l0 32.01 -13.24 0 0 -31.74c0,-2.8 -0.61,-4.84 -1.83,-6.11 -1.22,-1.27 -3.25,-1.91 -6.1,-1.91 -3.72,0 -6.52,1.59 -8.38,4.77l0 34.99 -13.24 0 0 -49.51 12.46 0zm102.2 35.82l-24.08 0 -4.58 13.69 -14.6 0 24.8 -66.67 12.74 0 24.96 66.67 -14.61 0 -4.63 -13.69zm-20.38 -11.16l16.68 0 -8.38 -24.97 -8.3 24.97zm54.93 -24.66l0.42 5.72c3.53,-4.44 8.28,-6.66 14.24,-6.66 5.25,0 9.16,1.55 11.72,4.63 2.56,3.08 3.88,7.69 3.94,13.82l0 32.01 -13.24 0 0 -31.74c0,-2.8 -0.61,-4.84 -1.83,-6.11 -1.22,-1.27 -3.25,-1.91 -6.1,-1.91 -3.72,0 -6.52,1.59 -8.38,4.77l0 34.99 -13.24 0 0 -49.51 12.46 0zm69.05 49.51c-0.61,-1.19 -1.05,-2.66 -1.33,-4.42 -3.2,3.58 -7.38,5.36 -12.5,5.36 -4.84,0 -8.88,-1.41 -12.07,-4.22 -3.19,-2.81 -4.78,-6.36 -4.78,-10.64 0,-5.25 1.95,-9.28 5.85,-12.1 3.89,-2.81 9.52,-4.24 16.86,-4.27l6.1 0 0 -2.81c0,-2.28 -0.59,-4.1 -1.77,-5.45 -1.17,-1.36 -3.03,-2.05 -5.56,-2.05 -2.22,0 -3.97,0.53 -5.24,1.58 -1.27,1.05 -1.91,2.5 -1.91,4.33l-13.22 0c0,-2.86 0.88,-5.52 2.64,-7.94 1.78,-2.44 4.28,-4.34 7.52,-5.74 3.24,-1.39 6.86,-2.08 10.89,-2.08 6.11,0 10.96,1.53 14.53,4.59 3.59,3.08 5.39,7.38 5.39,12.94l0 21.47c0.03,4.69 0.69,8.25 1.97,10.66l0 0.78 -13.38 0zm-10.94 -9.19c1.95,0 3.75,-0.44 5.41,-1.3 1.64,-0.88 2.86,-2.05 3.66,-3.5l0 -8.52 -4.94 0c-6.63,0 -10.16,2.28 -10.58,6.86l-0.05 0.78c0,1.64 0.58,3 1.74,4.08 1.16,1.06 2.75,1.59 4.77,1.59zm46.48 9.19l-13.28 0 0 -70.33 13.28 0 0 70.33zm29.4 -18.72l9.16 -30.79 14.19 0 -19.91 57.18 -1.11 2.59c-2.95,6.47 -7.85,9.71 -14.64,9.71 -1.92,0 -3.88,-0.3 -5.86,-0.88l0 -10.05 2.02 0.05c2.5,0 4.36,-0.38 5.61,-1.14 1.23,-0.77 2.2,-2.03 2.91,-3.8l1.55 -4.06 -17.35 -49.6 14.24 0 9.21 30.79zm44.42 -42.98l0 12.19 8.47 0 0 9.75 -8.47 0 0 24.69c0,1.83 0.36,3.14 1.06,3.94 0.7,0.8 2.05,1.19 4.03,1.19 1.45,0 2.75,-0.11 3.89,-0.31l0 10c-2.59,0.8 -5.27,1.19 -8.02,1.19 -9.28,0 -14.02,-4.67 -14.19,-14.03l0 -26.66 -7.24 0 0 -9.75 7.24 0 0 -12.19 13.22 0zm29.79 61.7l-13.27 0 0 -49.51 13.27 0 0 49.51zm-14.05 -62.3c0,-1.97 0.66,-3.61 1.99,-4.89 1.33,-1.28 3.14,-1.92 5.44,-1.92 2.25,0 4.05,0.64 5.39,1.92 1.34,1.28 2.02,2.92 2.02,4.89 0,2.02 -0.67,3.67 -2.03,4.95 -1.36,1.28 -3.16,1.92 -5.38,1.92 -2.23,0 -4.03,-0.64 -5.39,-1.92 -1.36,-1.28 -2.03,-2.94 -2.03,-4.95zm45.54 52.54c2.44,0 4.42,-0.67 5.95,-2.02 1.53,-1.33 2.31,-3.11 2.38,-5.34l12.41 0c-0.03,3.36 -0.94,6.44 -2.75,9.24 -1.8,2.8 -4.25,4.95 -7.39,6.5 -3.13,1.55 -6.58,2.31 -10.36,2.31 -7.08,0 -12.67,-2.25 -16.77,-6.75 -4.08,-4.5 -6.13,-10.72 -6.13,-18.66l0 -0.88c0,-7.64 2.03,-13.72 6.1,-18.27 4.05,-4.55 9.63,-6.83 16.71,-6.83 6.19,0 11.16,1.77 14.89,5.28 3.75,3.53 5.64,8.22 5.7,14.1l-12.41 0c-0.06,-2.58 -0.84,-4.67 -2.38,-6.28 -1.53,-1.61 -3.55,-2.41 -6.05,-2.41 -3.08,0 -5.41,1.13 -6.99,3.36 -1.56,2.25 -2.34,5.89 -2.34,10.94l0 1.36c0,5.11 0.77,8.77 2.33,11 1.56,2.23 3.92,3.34 7.1,3.34zm55.15 -3.92c0,-1.61 -0.81,-2.89 -2.41,-3.81 -1.61,-0.94 -4.17,-1.77 -7.72,-2.5 -11.78,-2.47 -17.68,-7.49 -17.68,-15.02 0,-4.41 1.83,-8.08 5.47,-11.02 3.66,-2.95 8.42,-4.42 14.32,-4.42 6.28,0 11.31,1.48 15.08,4.44 3.77,2.97 5.66,6.81 5.66,11.55l-13.24 0c0,-1.89 -0.61,-3.44 -1.83,-4.67 -1.22,-1.23 -3.13,-1.84 -5.72,-1.84 -2.23,0 -3.95,0.5 -5.17,1.5 -1.22,1.02 -1.83,2.3 -1.83,3.84 0,1.45 0.69,2.64 2.08,3.53 1.39,0.91 3.74,1.69 7.03,2.33 3.3,0.66 6.06,1.41 8.33,2.22 6.99,2.56 10.49,7.02 10.49,13.33 0,4.52 -1.94,8.17 -5.81,10.97 -3.88,2.8 -8.89,4.19 -15.02,4.19 -4.16,0 -7.85,-0.73 -11.07,-2.22 -3.22,-1.48 -5.74,-3.52 -7.58,-6.1 -1.83,-2.58 -2.74,-5.36 -2.74,-8.36l12.53 0c0.12,2.36 1,4.16 2.61,5.42 1.63,1.25 3.8,1.88 6.5,1.88 2.53,0 4.45,-0.48 5.75,-1.44 1.3,-0.97 1.95,-2.23 1.95,-3.8z"/>
  <path class="fil3" d="M289.59 128.93l-2.82 0 0 -21.33 2.82 0 0 21.33zm21.54 0l-2.83 0 -10.74 -16.44 0 16.44 -2.83 0 0 -21.33 2.83 0 10.77 16.51 0 -16.51 2.8 0 0 21.33zm21.39 0l-2.83 0 -10.74 -16.44 0 16.44 -2.83 0 0 -21.33 2.83 0 10.77 16.51 0 -16.51 2.8 0 0 21.33zm21.4 -9.98c0,2.09 -0.35,3.92 -1.06,5.48 -0.7,1.56 -1.7,2.75 -2.99,3.57 -1.29,0.82 -2.8,1.23 -4.52,1.23 -1.68,0 -3.17,-0.41 -4.47,-1.24 -1.3,-0.83 -2.31,-2 -3.03,-3.53 -0.72,-1.53 -1.09,-3.3 -1.11,-5.32l0 -1.54c0,-2.05 0.36,-3.87 1.07,-5.44 0.71,-1.57 1.72,-2.78 3.03,-3.61 1.3,-0.84 2.8,-1.26 4.48,-1.26 1.71,0 3.22,0.42 4.52,1.24 1.31,0.83 2.31,2.02 3.01,3.59 0.71,1.57 1.06,3.4 1.06,5.48l0 1.35zm-2.8 -1.38c0,-2.53 -0.51,-4.47 -1.53,-5.82 -1.02,-1.36 -2.44,-2.03 -4.26,-2.03 -1.78,0 -3.18,0.68 -4.2,2.03 -1.02,1.35 -1.55,3.23 -1.58,5.63l0 1.57c0,2.45 0.52,4.38 1.55,5.78 1.03,1.4 2.45,2.1 4.26,2.1 1.82,0 3.23,-0.66 4.22,-1.99 1,-1.32 1.51,-3.22 1.54,-5.69l0 -1.59zm13.76 7.62l6.09 -17.6 3.08 0 -7.91 21.33 -2.49 0 -7.9 -21.33 3.07 0 6.07 17.6zm22.71 -1.85l-8.94 0 -2.01 5.58 -2.9 0 8.15 -21.33 2.46 0 8.16 21.33 -2.89 0 -2.04 -5.58zm-8.09 -2.31l7.26 0 -3.64 -9.97 -3.62 9.97zm28.74 -11.13l-6.86 0 0 19.02 -2.8 0 0 -19.02 -6.84 0 0 -2.31 16.49 0 0 2.31zm6.19 19.02l-2.82 0 0 -21.33 2.82 0 0 21.33zm12.2 -3.74l6.09 -17.6 3.08 0 -7.91 21.33 -2.49 0 -7.9 -21.33 3.07 0 6.07 17.6zm24.09 -6.11l-9.24 0 0 7.53 10.74 0 0 2.31 -13.55 0 0 -21.33 13.41 0 0 2.31 -10.59 0 0 6.87 9.24 0 0 2.31zm18.7 0.34c-2.41,-0.7 -4.17,-1.55 -5.27,-2.56 -1.1,-1.01 -1.65,-2.26 -1.65,-3.75 0,-1.68 0.68,-3.07 2.02,-4.17 1.35,-1.1 3.09,-1.65 5.24,-1.65 1.47,0 2.78,0.28 3.92,0.85 1.15,0.57 2.04,1.35 2.67,2.35 0.63,1 0.95,2.09 0.95,3.27l-2.83 0c0,-1.29 -0.41,-2.31 -1.23,-3.05 -0.82,-0.74 -1.98,-1.11 -3.48,-1.11 -1.39,0 -2.47,0.31 -3.24,0.92 -0.78,0.62 -1.17,1.46 -1.17,2.55 0,0.87 0.36,1.61 1.11,2.21 0.74,0.6 1.99,1.15 3.77,1.65 1.77,0.5 3.16,1.05 4.16,1.65 1,0.6 1.74,1.3 2.23,2.11 0.48,0.8 0.73,1.75 0.73,2.83 0,1.73 -0.68,3.12 -2.02,4.16 -1.35,1.04 -3.15,1.56 -5.41,1.56 -1.47,0 -2.84,-0.28 -4.11,-0.84 -1.27,-0.57 -2.25,-1.34 -2.94,-2.31 -0.69,-0.98 -1.03,-2.09 -1.03,-3.33l2.83 0c0,1.29 0.48,2.3 1.43,3.05 0.95,0.75 2.22,1.12 3.82,1.12 1.49,0 2.62,-0.31 3.41,-0.91 0.79,-0.6 1.19,-1.43 1.19,-2.47 0,-1.05 -0.37,-1.86 -1.1,-2.43 -0.73,-0.57 -2.06,-1.14 -3.99,-1.69zm27.93 -0.47c0,2.09 -0.35,3.92 -1.06,5.48 -0.7,1.56 -1.7,2.75 -2.99,3.57 -1.29,0.82 -2.8,1.23 -4.52,1.23 -1.68,0 -3.17,-0.41 -4.47,-1.24 -1.3,-0.83 -2.31,-2 -3.03,-3.53 -0.72,-1.53 -1.09,-3.3 -1.11,-5.32l0 -1.54c0,-2.05 0.36,-3.87 1.07,-5.44 0.71,-1.57 1.72,-2.78 3.03,-3.61 1.3,-0.84 2.8,-1.26 4.48,-1.26 1.71,0 3.22,0.42 4.52,1.24 1.31,0.83 2.31,2.02 3.01,3.59 0.71,1.57 1.06,3.4 1.06,5.48l0 1.35zm-2.8 -1.38c0,-2.53 -0.51,-4.47 -1.53,-5.82 -1.02,-1.36 -2.44,-2.03 -4.26,-2.03 -1.78,0 -3.18,0.68 -4.2,2.03 -1.02,1.35 -1.55,3.23 -1.58,5.63l0 1.57c0,2.45 0.52,4.38 1.55,5.78 1.03,1.4 2.45,2.1 4.26,2.1 1.82,0 3.23,-0.66 4.22,-1.99 1,-1.32 1.51,-3.22 1.54,-5.69l0 -1.59zm9.85 9.05l10.11 0 0 2.31 -12.94 0 0 -21.33 2.83 0 0 19.02zm27.54 -19.02l0 14.51c-0.01,2.01 -0.64,3.66 -1.9,4.94 -1.26,1.28 -2.96,2 -5.11,2.16l-0.75 0.03c-2.34,0 -4.2,-0.63 -5.58,-1.89 -1.39,-1.26 -2.09,-3 -2.11,-5.21l0 -14.54 2.79 0 0 14.44c0,1.55 0.42,2.75 1.27,3.6 0.85,0.86 2.06,1.28 3.64,1.28 1.59,0 2.81,-0.42 3.66,-1.28 0.85,-0.85 1.27,-2.05 1.27,-3.59l0 -14.46 2.83 0zm19.18 2.31l-6.86 0 0 19.02 -2.8 0 0 -19.02 -6.84 0 0 -2.31 16.49 0 0 2.31zm6.19 19.02l-2.82 0 0 -21.33 2.82 0 0 21.33zm21.55 -9.98c0,2.09 -0.35,3.92 -1.06,5.48 -0.7,1.56 -1.7,2.75 -2.99,3.57 -1.29,0.82 -2.8,1.23 -4.52,1.23 -1.68,0 -3.17,-0.41 -4.47,-1.24 -1.3,-0.83 -2.31,-2 -3.03,-3.53 -0.72,-1.53 -1.09,-3.3 -1.11,-5.32l0 -1.54c0,-2.05 0.36,-3.87 1.07,-5.44 0.71,-1.57 1.72,-2.78 3.03,-3.61 1.3,-0.84 2.8,-1.26 4.48,-1.26 1.71,0 3.22,0.42 4.52,1.24 1.31,0.83 2.31,2.02 3.01,3.59 0.71,1.57 1.06,3.4 1.06,5.48l0 1.35zm-2.8 -1.38c0,-2.53 -0.51,-4.47 -1.53,-5.82 -1.02,-1.36 -2.44,-2.03 -4.26,-2.03 -1.78,0 -3.18,0.68 -4.2,2.03 -1.02,1.35 -1.55,3.23 -1.58,5.63l0 1.57c0,2.45 0.52,4.38 1.55,5.78 1.03,1.4 2.45,2.1 4.26,2.1 1.82,0 3.23,-0.66 4.22,-1.99 1,-1.32 1.51,-3.22 1.54,-5.69l0 -1.59zm23.42 11.36l-2.83 0 -10.74 -16.44 0 16.44 -2.83 0 0 -21.33 2.83 0 10.77 16.51 0 -16.51 2.8 0 0 21.33zm11.27 -9.51c-2.41,-0.7 -4.17,-1.55 -5.27,-2.56 -1.1,-1.01 -1.65,-2.26 -1.65,-3.75 0,-1.68 0.68,-3.07 2.02,-4.17 1.35,-1.1 3.09,-1.65 5.24,-1.65 1.47,0 2.78,0.28 3.92,0.85 1.15,0.57 2.04,1.35 2.67,2.35 0.63,1 0.95,2.09 0.95,3.27l-2.83 0c0,-1.29 -0.41,-2.31 -1.23,-3.05 -0.82,-0.74 -1.98,-1.11 -3.48,-1.11 -1.39,0 -2.47,0.31 -3.24,0.92 -0.78,0.62 -1.17,1.46 -1.17,2.55 0,0.87 0.36,1.61 1.11,2.21 0.74,0.6 1.99,1.15 3.77,1.65 1.77,0.5 3.16,1.05 4.16,1.65 1,0.6 1.74,1.3 2.23,2.11 0.48,0.8 0.73,1.75 0.73,2.83 0,1.73 -0.68,3.12 -2.02,4.16 -1.35,1.04 -3.15,1.56 -5.41,1.56 -1.47,0 -2.84,-0.28 -4.11,-0.84 -1.27,-0.57 -2.25,-1.34 -2.94,-2.31 -0.69,-0.98 -1.03,-2.09 -1.03,-3.33l2.83 0c0,1.29 0.48,2.3 1.43,3.05 0.95,0.75 2.22,1.12 3.82,1.12 1.49,0 2.62,-0.31 3.41,-0.91 0.79,-0.6 1.19,-1.43 1.19,-2.47 0,-1.05 -0.37,-1.86 -1.1,-2.43 -0.73,-0.57 -2.06,-1.14 -3.99,-1.69z"/>
  <line class="fil4 str2" x1="273.07" y1="117.28" x2="145.16" y2= "117.28" />
  <line class="fil4 str2" x1="761.67" y1="117.28" x2="633.76" y2= "117.28" />
 </g>
</svg>
