<?xml version="1.0" encoding="UTF-8"?>
<svg width="30px" height="31px" viewBox="0 0 30 31" version="1.1" xmlns="http://www.w3.org/2000/svg" xmlns:xlink="http://www.w3.org/1999/xlink">
    <title>E2E2E6F3-B99A-466B-A44E-BA561C70DDAE</title>
    <defs>
        <linearGradient x1="0%" y1="50%" x2="100%" y2="50%" id="linearGradient-1">
            <stop stop-color="#20E2D7" offset="0%"></stop>
            <stop stop-color="#F9FEA5" offset="100%"></stop>
        </linearGradient>
        <linearGradient x1="0%" y1="50%" x2="100%" y2="50%" id="linearGradient-2">
            <stop stop-color="#20E2D7" offset="0%"></stop>
            <stop stop-color="#F9FEA5" offset="100%"></stop>
        </linearGradient>
        <linearGradient x1="0%" y1="50%" x2="100%" y2="50%" id="linearGradient-3">
            <stop stop-color="#20E2D7" offset="0%"></stop>
            <stop stop-color="#F9FEA5" offset="100%"></stop>
        </linearGradient>
        <linearGradient x1="0%" y1="50%" x2="100%" y2="50%" id="linearGradient-4">
            <stop stop-color="#20E2D7" offset="0%"></stop>
            <stop stop-color="#F9FEA5" offset="100%"></stop>
        </linearGradient>
    </defs>
    <g id="Desktop" stroke="none" stroke-width="1" fill="none" fill-rule="evenodd">
        <g id="Resources" transform="translate(-387.000000, -169.000000)" fill-rule="nonzero">
            <g transform="translate(24.000000, 11.000000)" id="Icon-HelpCenter">
                <g transform="translate(363.000000, 158.732422)">
                    <path d="M17.0893333,30 L27.2723333,30 L27.2723333,25.9676667 L27.272,25.929 C27.272,25.9223333 27.2723333,25.9156667 27.2723333,25.909 C27.2723333,25.8803333 27.272,25.852 27.2713333,25.8236667 L27.2686667,25.4663333 L27.242,25.4663333 C27.068,24.21 26.1616667,23.1256667 24.8696667,22.4866667 C25.269,21.8603333 25.5073333,21.0923333 25.5073333,20.26 C25.5073333,18.1663333 24.0153333,16.463 22.181,16.463 C20.347,16.463 18.855,18.1663333 18.855,20.26 C18.855,21.092 19.0933333,21.86 19.4926667,22.4866667 C18.2006667,23.1256667 17.2943333,24.21 17.12,25.4663333 L17.0893333,25.4663333 L17.0893333,26.5936667 L13.2513333,26.5936667 L13.2513333,23.664 C13.2513333,23.6403333 13.251,23.6166667 13.2506667,23.5933333 L13.248,23.2153333 L13.217,23.2153333 C13.038,22.0543333 12.172,21.0616667 10.955,20.496 C11.3986667,19.8943333 11.6673333,19.12 11.6673333,18.2746667 C11.6673333,16.3673333 10.3053333,14.8156667 8.631,14.8156667 C6.95666667,14.8156667 5.59466667,16.3673333 5.59466667,18.2746667 C5.59466667,19.12 5.863,19.8946667 6.307,20.496 C5.08966667,21.0616667 4.22366667,22.0543333 4.045,23.2153333 L4.01066667,23.2153333 L4.01066667,26.5933333 L0.0433333333,26.5933333 L0.0433333333,27.5966667 L17.0893333,27.5966667 L17.0893333,30 Z M8.63066667,15.8183333 C9.75166667,15.8183333 10.664,16.92 10.664,18.274 C10.664,19.628 9.752,20.7296667 8.63066667,20.7296667 C7.50933333,20.7296667 6.59733333,19.628 6.59733333,18.274 C6.59733333,16.92 7.50933333,15.8183333 8.63066667,15.8183333 Z M5.013,24.218 L5.04033333,24.218 L5.016,23.6933333 L5.013,23.6636667 C5.013,22.5983333 5.86666667,21.6796667 7.09466667,21.2526667 C7.546,21.556 8.07,21.733 8.63066667,21.733 C9.19133333,21.733 9.71533333,21.556 10.1666667,21.2526667 C11.3903333,21.678 12.2423333,22.592 12.2483333,23.6526667 L12.2243333,24.218 L12.2483333,24.218 L12.2483333,26.3833333 L5.013,26.3833333 L5.013,24.218 Z M22.181,17.466 C23.462,17.466 24.504,18.7193333 24.504,20.2596667 C24.504,21.8 23.462,23.0533333 22.181,23.0533333 C20.9003333,23.0533333 19.858,21.8 19.858,20.2596667 C19.858,18.7193333 20.9,17.466 22.181,17.466 Z M18.0926667,26.4693333 L18.1223333,26.4693333 L18.096,25.9426667 L18.0926667,25.909 C18.0926667,24.781 18.9306667,23.797 20.1683333,23.2756667 C20.728,23.7636667 21.4243333,24.057 22.181,24.057 C22.938,24.057 23.6343333,23.7636667 24.1936667,23.2756667 C25.429,23.796 26.266,24.778 26.2686667,25.9036667 L26.2433333,26.4693333 L26.269,26.4693333 L26.269,28.9966667 L18.0923333,28.9966667 L18.0923333,26.4693333 L18.0926667,26.4693333 Z" id="Shape" fill="url(#linearGradient-1)"></path>
                    <path d="M14.5813333,14.036 L15.7493333,14.036 L18.526,17.1213333 L18.897,16.6806667 C18.9093333,16.666 20.095,15.2596667 21.2356667,14.036 L27.1356667,14.036 C28.691,14.036 29.9563334,12.7706667 29.9563334,11.2153333 L29.9563334,2.82066667 C29.9566667,1.26533333 28.691,0 27.1356667,0 L14.5813333,0 C13.026,0 11.7606667,1.26533333 11.7606667,2.82066667 L11.7606667,11.2153333 C11.7606667,12.7706667 13.026,14.036 14.5813333,14.036 Z M12.7636667,2.82066667 C12.7636667,1.81866667 13.579,1.00333333 14.581,1.00333333 L27.1356667,1.00333333 C28.138,1.00333333 28.9533333,1.81866667 28.9533333,2.82066667 L28.9533333,11.2153333 C28.9533333,12.2176667 28.138,13.033 27.1356667,13.033 L20.8016667,13.033 L20.653,13.1906667 C19.8406667,14.0536667 18.98,15.0416667 18.5033333,15.5966667 L16.196,13.033 L14.5813333,13.033 C13.5793333,13.033 12.764,12.2176667 12.764,11.2153333 L12.764,2.82066667 L12.7636667,2.82066667 Z" id="Shape" fill="url(#linearGradient-2)"></path>
                    <path d="M20.5716667,9.31633333 C20.2686667,9.31633333 20.0166667,9.40533333 19.816,9.58333333 C19.6153333,9.76133333 19.515,9.983 19.515,10.248 C19.515,10.5056667 19.6153333,10.729 19.816,10.9183333 C20.0166667,11.1 20.2686667,11.191 20.5716667,11.191 C20.8746667,11.191 21.1246667,11.102 21.3216667,10.924 C21.5146667,10.746 21.6113333,10.5206667 21.6113333,10.248 C21.6113333,9.979 21.513,9.75733333 21.316,9.58333333 C21.119,9.40533333 20.871,9.31633333 20.5716667,9.31633333 Z" id="Path" fill="url(#linearGradient-3)"></path>
                    <path d="M20.424,4.26533333 C20.5603333,4.26533333 20.6843333,4.28633333 20.796,4.32766667 C20.9076667,4.36933333 21.0023333,4.426 21.08,4.498 C21.1576667,4.57 21.2173333,4.656 21.259,4.75666667 C21.3006667,4.857 21.3213333,4.966 21.3213333,5.08333333 C21.3213333,5.21966667 21.3023333,5.34366667 21.2646667,5.45533333 C21.2266667,5.567 21.17,5.675 21.0943333,5.77933333 C21.0186667,5.88333333 20.9266667,5.98766667 20.8186667,6.09166667 C20.7106667,6.196 20.5846667,6.30866667 20.441,6.42966667 C20.3046667,6.54333333 20.1853333,6.658 20.083,6.77333333 C19.9806667,6.889 19.8956667,7.01 19.8273333,7.137 C19.759,7.264 19.708,7.39933333 19.674,7.54333333 C19.64,7.68733333 19.623,7.84633333 19.623,8.02066667 C19.623,8.13066667 19.6333333,8.247 19.6543333,8.37 C19.6753333,8.493 19.7046667,8.604 19.7423333,8.70233333 L21.2366667,8.70233333 C21.195,8.638 21.162,8.55833333 21.1373333,8.46366667 C21.1126667,8.369 21.1003333,8.27633333 21.1003333,8.18533333 C21.1003333,8.05266667 21.1173333,7.93433333 21.1513333,7.83033333 C21.1853333,7.726 21.2356667,7.62766667 21.302,7.535 C21.3683333,7.44233333 21.4516667,7.34833333 21.552,7.25366667 C21.6523333,7.159 21.769,7.05666667 21.9013333,6.947 C22.0983333,6.784 22.2726667,6.626 22.424,6.47266667 C22.5756667,6.31933333 22.7023333,6.15933333 22.8046667,5.99266667 C22.907,5.826 22.9846667,5.649 23.0376667,5.46133333 C23.0906667,5.274 23.1173333,5.06466667 23.1173333,4.83366667 C23.1173333,4.47 23.054,4.15833333 22.927,3.899 C22.8,3.63966667 22.624,3.42633333 22.3986667,3.25966667 C22.1733333,3.093 21.909,2.971 21.606,2.89333333 C21.303,2.81566667 20.9753333,2.777 20.623,2.777 C20.2556667,2.777 19.8996667,2.82066667 19.5546667,2.90766667 C19.21,2.99466667 18.8916667,3.12533333 18.6,3.29966667 L18.6,5.01 C18.884,4.76 19.1853333,4.57333333 19.5033333,4.45033333 C19.8216667,4.327 20.1283333,4.26533333 20.424,4.26533333 Z" id="Path" fill="url(#linearGradient-4)"></path>
                </g>
            </g>
        </g>
    </g>
</svg>