<?xml version="1.0" encoding="UTF-8"?>
<svg width="30px" height="29px" viewBox="0 0 30 29" version="1.1" xmlns="http://www.w3.org/2000/svg" xmlns:xlink="http://www.w3.org/1999/xlink">
    <title>AF086D86-D56B-4A70-83F3-7DBF88BCA4FB</title>
    <defs>
        <linearGradient x1="0%" y1="50%" x2="100%" y2="50%" id="linearGradient-1">
            <stop stop-color="#20E2D7" offset="0%"></stop>
            <stop stop-color="#F9FEA5" offset="100%"></stop>
        </linearGradient>
        <linearGradient x1="0%" y1="50%" x2="100%" y2="50%" id="linearGradient-2">
            <stop stop-color="#20E2D7" offset="0%"></stop>
            <stop stop-color="#F9FEA5" offset="100%"></stop>
        </linearGradient>
        <linearGradient x1="0%" y1="50%" x2="100%" y2="50%" id="linearGradient-3">
            <stop stop-color="#20E2D7" offset="0%"></stop>
            <stop stop-color="#F9FEA5" offset="100%"></stop>
        </linearGradient>
        <linearGradient x1="0%" y1="50%" x2="100%" y2="50%" id="linearGradient-4">
            <stop stop-color="#20E2D7" offset="0%"></stop>
            <stop stop-color="#F9FEA5" offset="100%"></stop>
        </linearGradient>
    </defs>
    <g id="Desktop" stroke="none" stroke-width="1" fill="none" fill-rule="evenodd">
        <g id="Learn" transform="translate(-67.000000, -74.000000)" fill-rule="nonzero">
            <g transform="translate(27.000000, 21.000000)" id="Icon-Course">
                <g transform="translate(40.000000, 53.732422)">
                    <path d="M15,14.484375 C18.28125,14.484375 20.953125,11.8125 20.953125,8.53125 C20.953125,5.25 18.28125,2.578125 15,2.578125 C11.71875,2.578125 9.046875,5.25 9.046875,8.53125 C9.046875,11.8125 11.71875,14.484375 15,14.484375 Z M15,3.46875 C17.765625,3.46875 20.015625,5.71875 20.015625,8.484375 C20.015625,11.25 17.765625,13.546875 15,13.546875 C12.234375,13.546875 9.984375,11.296875 9.984375,8.53125 C9.984375,5.765625 12.234375,3.46875 15,3.46875 Z" id="Shape" fill="url(#linearGradient-1)"></path>
                    <path d="M13.59375,12 C13.78125,12.09375 13.921875,12.140625 14.109375,12.140625 C14.34375,12.140625 14.53125,12.09375 14.71875,11.953125 L18.421875,9.421875 C18.421875,9.421875 18.421875,9.421875 18.421875,9.421875 C18.75,9.234375 18.890625,8.859375 18.890625,8.484375 C18.890625,8.109375 18.703125,7.78125 18.421875,7.546875 L14.71875,5.015625 C14.390625,4.78125 13.921875,4.734375 13.546875,4.96875 C13.171875,5.15625 12.9375,5.53125 12.9375,5.953125 L12.9375,10.96875 C12.984375,11.4375 13.21875,11.8125 13.59375,12 Z M13.921875,6 C13.921875,5.90625 13.96875,5.859375 14.015625,5.859375 C14.015625,5.859375 14.0625,5.859375 14.109375,5.859375 C14.15625,5.859375 14.15625,5.859375 14.203125,5.90625 L17.90625,8.4375 C17.953125,8.484375 18,8.53125 18,8.578125 C18,8.625 18,8.671875 17.90625,8.71875 L14.203125,11.25 C14.109375,11.296875 14.0625,11.296875 14.015625,11.25 C13.96875,11.25 13.921875,11.203125 13.921875,11.109375 L13.921875,6 Z" id="Shape" fill="url(#linearGradient-2)"></path>
                    <path d="M3.46875,17.203125 L5.71875,17.203125 C5.90625,18 6.65625,18.5625 7.5,18.5625 C8.34375,18.5625 9.046875,18 9.28125,17.203125 L26.484375,17.203125 C26.765625,17.203125 26.953125,17.015625 26.953125,16.734375 C26.953125,16.453125 26.765625,16.265625 26.484375,16.265625 L9.28125,16.265625 C9.09375,15.46875 8.34375,14.90625 7.5,14.90625 C6.65625,14.90625 5.953125,15.46875 5.71875,16.265625 L3.46875,16.265625 C3.1875,16.265625 3,16.453125 3,16.734375 C3,17.015625 3.234375,17.203125 3.46875,17.203125 Z M7.546875,15.84375 C8.0625,15.84375 8.4375,16.265625 8.4375,16.734375 C8.4375,17.25 8.015625,17.625 7.546875,17.625 C7.03125,17.625 6.65625,17.203125 6.65625,16.734375 C6.609375,16.265625 7.03125,15.84375 7.546875,15.84375 Z" id="Shape" fill="url(#linearGradient-3)"></path>
                    <path d="M28.03125,0.1875 L1.96875,0.1875 C0.890625,0.1875 -1.66533454e-15,1.078125 -1.66533454e-15,2.203125 C-1.66533454e-15,3.890625 -1.66533454e-15,18.75 -1.66533454e-15,22.265625 C-1.66533454e-15,23.34375 0.890625,24.234375 2.015625,24.234375 L10.640625,24.234375 L9.703125,26.953125 L7.828125,26.953125 C7.546875,26.953125 7.359375,27.140625 7.359375,27.421875 C7.359375,27.703125 7.546875,27.890625 7.828125,27.890625 C12.796875,27.890625 16.921875,27.890625 22.171875,27.890625 C22.453125,27.890625 22.640625,27.703125 22.640625,27.421875 C22.640625,27.140625 22.453125,26.953125 22.171875,26.953125 L20.296875,26.953125 L19.359375,24.234375 L27.984375,24.234375 C29.0625,24.234375 29.953125,23.34375 29.953125,22.265625 C29.953125,18.796875 29.953125,3.140625 29.953125,2.203125 C30,1.078125 29.109375,0.1875 28.03125,0.1875 Z M1.96875,1.125 L27.984375,1.125 C28.546875,1.125 29.015625,1.59375 29.015625,2.15625 L29.015625,19.96875 L0.9375,19.96875 L0.9375,2.15625 C0.9375,1.59375 1.40625,1.125 1.96875,1.125 Z M19.3125,27 L10.6875,27 L11.625,24.28125 L18.375,24.28125 L19.3125,27 Z M28.03125,23.34375 C22.59375,23.34375 7.40625,23.34375 2.015625,23.34375 C1.453125,23.34375 0.9375,22.875 0.9375,22.3125 L0.9375,20.953125 L29.0625,20.953125 L29.0625,22.3125 C29.0625,22.875 28.59375,23.34375 28.03125,23.34375 Z" id="Shape" fill="url(#linearGradient-4)"></path>
                </g>
            </g>
        </g>
    </g>
</svg>