<?xml version="1.0" encoding="UTF-8"?>
<svg width="30px" height="33px" viewBox="0 0 30 33" version="1.1" xmlns="http://www.w3.org/2000/svg" xmlns:xlink="http://www.w3.org/1999/xlink">
    <title>474BED3B-753E-4559-AB24-3F9BD71726FE</title>
    <defs>
        <linearGradient x1="0%" y1="50%" x2="100%" y2="50%" id="linearGradient-1">
            <stop stop-color="#20E2D7" offset="0%"></stop>
            <stop stop-color="#F9FEA5" offset="100%"></stop>
        </linearGradient>
        <linearGradient x1="0%" y1="50%" x2="100%" y2="50%" id="linearGradient-2">
            <stop stop-color="#20E2D7" offset="0%"></stop>
            <stop stop-color="#F9FEA5" offset="100%"></stop>
        </linearGradient>
        <linearGradient x1="0%" y1="50%" x2="100%" y2="50%" id="linearGradient-3">
            <stop stop-color="#20E2D7" offset="0%"></stop>
            <stop stop-color="#F9FEA5" offset="100%"></stop>
        </linearGradient>
    </defs>
    <g id="Desktop" stroke="none" stroke-width="1" fill="none" fill-rule="evenodd">
        <g id="Learn" transform="translate(-67.000000, -161.000000)" fill-rule="nonzero">
            <g transform="translate(27.000000, 21.000000)" id="Icon-Path">
                <g transform="translate(40.000000, 140.732422)">
                    <path d="M21.1939024,31.2292695 L21.1426829,31.2292695 L9.16829268,31.097561 C8.8826826,31.0937721 8.61057427,30.975375 8.41312112,30.7689779 C8.21566798,30.5625809 8.10943347,30.2854978 8.11829268,30 C8.11079803,29.7147847 8.2225921,29.4393661 8.42675524,29.240064 C8.63091838,29.0407618 8.90895053,28.9356359 9.19390244,28.95 L21.1646341,29.0926829 L21.197561,29.0926829 C23.5439359,29.0887381 25.449012,27.1950892 25.4670732,24.8487805 L25.4670732,23.4987805 C25.4792909,21.1466546 23.5898174,19.2261257 21.2378049,19.2 L8.82439024,19.1012195 C6.9403757,19.0876868 5.13896263,18.3260093 3.8167154,16.9838632 C2.49446817,15.6417171 1.75978165,13.8291285 1.77417648,11.945122 C1.81442415,8.04682576 4.98077888,4.90492795 8.87926829,4.89512195 L20.195122,4.89512195 C20.7598824,4.92821457 21.2009243,5.39585616 21.2009243,5.96158537 C21.2009243,6.52731457 20.7598824,6.99495616 20.195122,7.02804878 L8.87926829,7.02804878 C6.15082034,7.03388902 3.93367929,9.23146706 3.90365854,11.9597561 C3.89294424,13.2790415 4.40702422,14.5484929 5.33269778,15.4885765 C6.25837134,16.4286601 7.5197309,16.9622866 8.83902439,16.9719512 L21.252439,17.0670732 C24.7887729,17.0992675 27.6316723,19.9879937 27.6074724,23.5243902 L27.6074724,24.8743902 C27.5771797,28.3943776 24.7140182,31.2314065 21.1939024,31.2292695 L21.1939024,31.2292695 Z" id="Path" fill="url(#linearGradient-1)"></path>
                    <path d="M28.05,1.7597561 L29.8353659,0.234146341 L23.8646341,0.234146341 C23.6049278,0.234146341 23.3559114,0.337562226 23.1726148,0.521545285 C22.9893183,0.705528344 22.8868322,0.954929609 22.887798,1.21463415 L22.887798,6.54146341 C22.887798,7.27317073 25.0426829,7.27317073 25.0426829,6.54146341 L25.0426829,3.29268293 L29.8353659,3.29268293 L28.05,1.7597561 Z" id="Path" fill="url(#linearGradient-2)"></path>
                    <path d="M7.41585366,21.9695122 C6.34274982,20.8964083 4.77866689,20.4773136 3.31277977,20.8700968 C1.84689265,21.2628801 0.701904469,22.4078683 0.309121206,23.8737554 C-0.0836620561,25.3396425 0.33543272,26.9037254 1.40853659,27.9768293 L4.41219512,30.9804878 L7.41585366,27.9768293 C9.07285057,26.3171771 9.07285057,23.6291644 7.41585366,21.9695122 L7.41585366,21.9695122 Z M4.41219512,27.1829296 C3.43227572,27.1844071 2.54802221,26.595257 2.17199717,25.6903541 C1.79597213,24.7854511 2.00227997,23.7431272 2.69466448,23.0496952 C3.38704898,22.3562632 4.42905982,22.1483799 5.3345302,22.5230366 C6.24000058,22.8976932 6.8304878,23.7810551 6.8304878,24.7609756 C6.8304878,26.0971549 5.74837288,27.1809084 4.41219512,27.1829296 Z" id="Shape" fill="url(#linearGradient-3)"></path>
                </g>
            </g>
        </g>
    </g>
</svg>