<?xml version="1.0" encoding="UTF-8"?>
<svg width="30px" height="30px" viewBox="0 0 30 30" version="1.1" xmlns="http://www.w3.org/2000/svg" xmlns:xlink="http://www.w3.org/1999/xlink">
    <title>AAF31EF3-A0DF-4990-960B-9C1F74732A6A</title>
    <defs>
        <linearGradient x1="0%" y1="50%" x2="100%" y2="50%" id="linearGradient-1">
            <stop stop-color="#20E2D7" offset="0%"></stop>
            <stop stop-color="#F9FEA5" offset="100%"></stop>
        </linearGradient>
        <linearGradient x1="0%" y1="50%" x2="100%" y2="50%" id="linearGradient-2">
            <stop stop-color="#20E2D7" offset="0%"></stop>
            <stop stop-color="#F9FEA5" offset="100%"></stop>
        </linearGradient>
        <linearGradient x1="0%" y1="50%" x2="100%" y2="50%" id="linearGradient-3">
            <stop stop-color="#20E2D7" offset="0%"></stop>
            <stop stop-color="#F9FEA5" offset="100%"></stop>
        </linearGradient>
        <linearGradient x1="0%" y1="50%" x2="100%" y2="50%" id="linearGradient-4">
            <stop stop-color="#20E2D7" offset="0%"></stop>
            <stop stop-color="#F9FEA5" offset="100%"></stop>
        </linearGradient>
    </defs>
    <g id="Desktop" stroke="none" stroke-width="1" fill="none" fill-rule="evenodd">
        <g id="Resources" transform="translate(-64.000000, -168.000000)" fill-rule="nonzero">
            <g transform="translate(24.000000, 11.000000)" id="Icon-BI">
                <g transform="translate(40.000000, 157.000000)">
                    <path d="M19.4619998,10.7649999 C19.4619998,10.5766665 19.4529998,10.3899999 19.4393331,10.2049999 C19.4123331,9.83233322 19.3593331,9.46699989 19.2803331,9.1109999 C18.5219998,5.6716666 15.4506665,3.08966663 11.7863332,3.08966663 C7.55433325,3.08966663 4.11133329,6.53299993 4.11133329,10.7649999 C4.11133329,12.1293332 4.47066662,13.4106665 5.09733328,14.5219998 C5.24966661,14.7919998 5.41699994,15.0519998 5.5996666,15.3003332 C6.99766659,17.2029998 9.24999989,18.4406665 11.7866665,18.4406665 C16.0186665,18.4406665 19.4619998,14.9973332 19.4619998,10.7649999 Z M5.01066661,10.7649999 C5.01066661,7.02899992 8.04999991,3.98966662 11.7859999,3.98966662 C15.2156665,3.98966662 18.0516665,6.55299993 18.4949998,9.86333322 L16.0639998,12.1916665 C15.8473332,12.0653332 15.5986665,11.9876665 15.3303332,11.9876665 C14.8093332,11.9876665 14.3529998,12.2626665 14.0926665,12.6729999 L10.4393332,11.2523332 C10.4039999,10.4739999 9.76466656,9.84966655 8.97666656,9.84966655 C8.16666657,9.84966655 7.50799991,10.5083332 7.50799991,11.3179999 C7.50799991,11.5139999 7.54799991,11.7003332 7.61799991,11.8716665 L5.7526666,13.8326665 C5.28199994,12.9103332 5.01066661,11.8696665 5.01066661,10.7649999 Z M15.8993332,13.4566665 C15.8993332,13.7703332 15.6439998,14.0256665 15.3303332,14.0256665 C15.0166665,14.0256665 14.7613332,13.7703332 14.7613332,13.4566665 C14.7613332,13.1429999 15.0166665,12.8876665 15.3303332,12.8876665 C15.6439998,12.8876665 15.8993332,13.1429999 15.8993332,13.4566665 Z M8.4079999,11.3183332 C8.4079999,11.0049999 8.66333323,10.7499999 8.9769999,10.7499999 C9.29066656,10.7499999 9.54633322,11.0049999 9.54633322,11.3183332 C9.54633322,11.6323332 9.29066656,11.8876665 8.9769999,11.8876665 C8.66333323,11.8876665 8.4079999,11.6319999 8.4079999,11.3183332 Z M11.7859999,17.5406665 C9.48866656,17.5406665 7.45833325,16.3886665 6.23233326,14.6349998 L8.20399991,12.5623332 C8.4289999,12.7029999 8.69233323,12.7876665 8.97666656,12.7876665 C9.48833323,12.7876665 9.93866655,12.5236665 10.2019999,12.1259999 L13.8713332,13.5526665 C13.9216665,14.3169998 14.5533332,14.9256665 15.3303332,14.9256665 C16.1403331,14.9256665 16.7989998,14.2666665 16.7989998,13.4566665 C16.7989998,13.2433332 16.7506665,13.0416665 16.6686665,12.8586665 L18.5469998,11.0596665 C18.3916665,14.6586665 15.4233332,17.5406665 11.7859999,17.5406665 Z" id="Shape" fill="url(#linearGradient-1)"></path>
                    <path d="M28.9066663,23.8596664 L22.1773331,16.8523331 L21.5463331,17.4573331 L20.6226664,16.4933331 C21.6963331,14.8429998 22.3229997,12.8763332 22.3229997,10.7646665 C22.3229997,9.75033322 22.1759997,8.7699999 21.9073331,7.84099991 L23.4143331,6.39733326 C23.5673331,6.45166659 23.7293331,6.48666659 23.9009997,6.48666659 C24.7109997,6.48666659 25.3696664,5.8276666 25.3696664,5.01766661 C25.3696664,4.78666661 25.311333,4.57066661 25.2159997,4.37599995 L27.781333,1.82099998 L27.781333,3.1163333 L28.6809997,3.1163333 L28.6809997,0.228666664 L25.9279997,0.228666664 L25.9279997,1.12866665 L27.2016664,1.12866665 L24.5899997,3.72933329 C24.3836664,3.61833329 24.1513331,3.54933329 23.9006664,3.54933329 C23.0906664,3.54933329 22.4319997,4.20833329 22.4319997,5.01833328 C22.4319997,5.32533327 22.5273331,5.60999994 22.6889997,5.84599993 L21.5859998,6.90233325 C20.0416664,2.99866663 16.2323331,0.228666664 11.7859999,0.228666664 C5.97599993,0.228666664 1.24966665,4.95533328 1.24966665,10.7649999 C1.24966665,12.9489999 1.91766664,14.9796665 3.05999997,16.6636665 L2.24266664,17.5226665 C2.07433331,17.4556665 1.89166665,17.4159998 1.69966665,17.4159998 C0.889666657,17.4159998 0.230999997,18.0749998 0.230999997,18.8846665 C0.230999997,19.6953331 0.88999999,20.3543331 1.69966665,20.3543331 C2.5093333,20.3543331 3.1683333,19.6949998 3.1683333,18.8846665 C3.1683333,18.5956665 3.0813333,18.3273331 2.93666663,18.0996665 L3.60566663,17.3963331 C5.53933327,19.7773331 8.48766657,21.3023331 11.7863332,21.3023331 C13.8776665,21.3023331 15.8269998,20.6873331 17.4676665,19.6323331 L18.3353331,20.5369998 L17.7033331,21.1429998 L24.4333331,28.150333 C25.023333,28.7656663 25.8176664,29.1046663 26.6706664,29.1046663 C27.4739997,29.1046663 28.235333,28.798333 28.8149997,28.2419997 C29.4129997,27.6689997 29.7519997,26.8976664 29.7689997,26.0696664 C29.7859997,25.2416664 29.4796663,24.4576664 28.9066663,23.8596664 Z M23.9006664,4.44933328 C24.2143331,4.44933328 24.4696664,4.70466661 24.4696664,5.01833328 C24.4696664,5.33199994 24.2143331,5.58733327 23.9006664,5.58733327 C23.5869997,5.58733327 23.3316664,5.33199994 23.3316664,5.01833328 C23.3316664,4.70466661 23.5869997,4.44933328 23.9006664,4.44933328 Z M1.69966665,19.4543331 C1.38599998,19.4543331 1.13066665,19.1986664 1.13066665,18.8846665 C1.13066665,18.5713331 1.38599998,18.3163331 1.69966665,18.3163331 C2.01333331,18.3163331 2.26866664,18.5713331 2.26866664,18.8846665 C2.26866664,19.1989998 2.01333331,19.4543331 1.69966665,19.4543331 Z M4.23199995,16.7376665 C4.04233329,16.4986665 3.86399996,16.2503331 3.69733329,15.9936665 C2.7193333,14.4863332 2.14899998,12.6916665 2.14899998,10.7649999 C2.14899998,5.4516666 6.47233326,1.12866665 11.7856665,1.12866665 C15.9833332,1.12866665 19.5603331,3.82699996 20.8789998,7.57933325 C20.9906664,7.89666658 21.0853331,8.22166657 21.1636664,8.5529999 C21.3313331,9.26366656 21.4226664,10.0036666 21.4226664,10.7649999 C21.4226664,12.7969999 20.7889998,14.6829998 19.7109998,16.2389998 L16.9229998,18.9126665 C15.4346665,19.8543331 13.6733332,20.4023331 11.7856665,20.4023331 C8.72733323,20.4019998 5.9986666,18.9673331 4.23199995,16.7376665 Z M18.2116665,19.1076664 C18.9133331,18.5656665 19.5449998,17.9373331 20.0906664,17.2389998 L20.8973331,18.0799998 L18.9849998,19.9136664 L18.2116665,19.1076664 Z M19.8943331,20.2886664 L22.1513331,18.1243331 L22.8716664,18.8749998 L19.7199998,21.9443331 L18.9756665,21.1693331 L19.8943331,20.2886664 Z M28.1916663,27.5926664 C27.780333,27.9876663 27.240333,28.2046663 26.670333,28.2046663 C26.065333,28.2046663 25.501333,27.9639997 25.082333,27.527333 L20.3433331,22.5933331 L23.4949997,19.5239998 L28.2569997,24.4829997 C28.6639997,24.9066664 28.8809997,25.4636664 28.8686663,26.051333 C28.856333,26.6386664 28.616333,27.186333 28.1916663,27.5926664 Z" id="Shape" fill="url(#linearGradient-2)"></path>
                    <path d="M13.2989998,6.57599993 L13.5893332,5.72399993 C10.4786665,4.66399995 8.28633324,6.68433326 8.19399991,6.77099992 L8.8119999,7.42566658 C8.83066657,7.40833325 10.6946665,5.68899994 13.2989998,6.57599993 Z" id="Path" fill="url(#linearGradient-3)"></path>
                    <path d="M15.3203332,6.70899992 C14.9986665,6.47866659 14.6666665,6.2346666 14.6659998,6.23399993 L14.1326665,6.95933325 C14.1326665,6.95933325 14.4696665,7.20699992 14.7959998,7.44066658 L15.3203332,6.70899992 Z" id="Path" fill="url(#linearGradient-4)"></path>
                </g>
            </g>
        </g>
    </g>
</svg>